<?xml version="1.0" encoding="utf-8" standalone="no"?>
<!DOCTYPE svg PUBLIC "-//W3C//DTD SVG 1.1//EN"
  "http://www.w3.org/Graphics/SVG/1.1/DTD/svg11.dtd">
<svg xmlns:xlink="http://www.w3.org/1999/xlink" width="731.04pt" height="432pt" viewBox="0 0 731.04 432" xmlns="http://www.w3.org/2000/svg" version="1.1">
 <metadata>
  <rdf:RDF xmlns:dc="http://purl.org/dc/elements/1.1/" xmlns:cc="http://creativecommons.org/ns#" xmlns:rdf="http://www.w3.org/1999/02/22-rdf-syntax-ns#">
   <cc:Work>
    <dc:type rdf:resource="http://purl.org/dc/dcmitype/StillImage"/>
    <dc:date>2025-11-07T11:06:20.294427</dc:date>
    <dc:format>image/svg+xml</dc:format>
    <dc:creator>
     <cc:Agent>
      <dc:title>Matplotlib v3.10.0, https://matplotlib.org/</dc:title>
     </cc:Agent>
    </dc:creator>
   </cc:Work>
  </rdf:RDF>
 </metadata>
 <defs>
  <style type="text/css">*{stroke-linejoin: round; stroke-linecap: butt}</style>
 </defs>
 <g id="figure_1">
  <g id="patch_1">
   <path d="M 0 432 
L 731.04 432 
L 731.04 0 
L 0 0 
z
" style="fill: #ffffff"/>
  </g>
  <g id="axes_1">
   <g id="patch_2">
    <path d="M 36.892862 390.04 
L 361.603714 390.04 
L 361.603714 41.856 
L 36.892862 41.856 
z
" style="fill: #ffffff"/>
   </g>
   <g id="patch_3">
    <path d="M 30.879698 274.083522 
L 263.748208 274.083522 
L 263.748208 215.948 
L 30.879698 215.948 
z
" clip-path="url(#p66bcb286cb)" style="fill: #008000; opacity: 0.3; stroke: #008000; stroke-linejoin: miter"/>
   </g>
   <g id="matplotlib.axis_1">
    <g id="xtick_1">
     <g id="line2d_1">
      <path d="M 91.011337 390.04 
L 91.011337 41.856 
" clip-path="url(#p66bcb286cb)" style="fill: none; stroke-dasharray: 2.96,1.28; stroke-dashoffset: 0; stroke: #b0b0b0; stroke-opacity: 0.6; stroke-width: 0.8"/>
     </g>
     <g id="line2d_2">
      <defs>
       <path id="m03c382880f" d="M 0 0 
L 0 3.5 
" style="stroke: #000000; stroke-width: 0.8"/>
      </defs>
      <g>
       <use xlink:href="#m03c382880f" x="91.011337" y="390.04" style="stroke: #000000; stroke-width: 0.8"/>
      </g>
     </g>
     <g id="text_1">
      <!-- 20 -->
      <g transform="translate(84.648837 404.638438) scale(0.1 -0.1)">
       <defs>
        <path id="DejaVuSans-32" d="M 1228 531 
L 3431 531 
L 3431 0 
L 469 0 
L 469 531 
Q 828 903 1448 1529 
Q 2069 2156 2228 2338 
Q 2531 2678 2651 2914 
Q 2772 3150 2772 3378 
Q 2772 3750 2511 3984 
Q 2250 4219 1831 4219 
Q 1534 4219 1204 4116 
Q 875 4013 500 3803 
L 500 4441 
Q 881 4594 1212 4672 
Q 1544 4750 1819 4750 
Q 2544 4750 2975 4387 
Q 3406 4025 3406 3419 
Q 3406 3131 3298 2873 
Q 3191 2616 2906 2266 
Q 2828 2175 2409 1742 
Q 1991 1309 1228 531 
z
" transform="scale(0.015625)"/>
        <path id="DejaVuSans-30" d="M 2034 4250 
Q 1547 4250 1301 3770 
Q 1056 3291 1056 2328 
Q 1056 1369 1301 889 
Q 1547 409 2034 409 
Q 2525 409 2770 889 
Q 3016 1369 3016 2328 
Q 3016 3291 2770 3770 
Q 2525 4250 2034 4250 
z
M 2034 4750 
Q 2819 4750 3233 4129 
Q 3647 3509 3647 2328 
Q 3647 1150 3233 529 
Q 2819 -91 2034 -91 
Q 1250 -91 836 529 
Q 422 1150 422 2328 
Q 422 3509 836 4129 
Q 1250 4750 2034 4750 
z
" transform="scale(0.015625)"/>
       </defs>
       <use xlink:href="#DejaVuSans-32"/>
       <use xlink:href="#DejaVuSans-30" transform="translate(63.623047 0)"/>
      </g>
     </g>
    </g>
    <g id="xtick_2">
     <g id="line2d_3">
      <path d="M 151.142977 390.04 
L 151.142977 41.856 
" clip-path="url(#p66bcb286cb)" style="fill: none; stroke-dasharray: 2.96,1.28; stroke-dashoffset: 0; stroke: #b0b0b0; stroke-opacity: 0.6; stroke-width: 0.8"/>
     </g>
     <g id="line2d_4">
      <g>
       <use xlink:href="#m03c382880f" x="151.142977" y="390.04" style="stroke: #000000; stroke-width: 0.8"/>
      </g>
     </g>
     <g id="text_2">
      <!-- 40 -->
      <g transform="translate(144.780477 404.638438) scale(0.1 -0.1)">
       <defs>
        <path id="DejaVuSans-34" d="M 2419 4116 
L 825 1625 
L 2419 1625 
L 2419 4116 
z
M 2253 4666 
L 3047 4666 
L 3047 1625 
L 3713 1625 
L 3713 1100 
L 3047 1100 
L 3047 0 
L 2419 0 
L 2419 1100 
L 313 1100 
L 313 1709 
L 2253 4666 
z
" transform="scale(0.015625)"/>
       </defs>
       <use xlink:href="#DejaVuSans-34"/>
       <use xlink:href="#DejaVuSans-30" transform="translate(63.623047 0)"/>
      </g>
     </g>
    </g>
    <g id="xtick_3">
     <g id="line2d_5">
      <path d="M 211.274616 390.04 
L 211.274616 41.856 
" clip-path="url(#p66bcb286cb)" style="fill: none; stroke-dasharray: 2.96,1.28; stroke-dashoffset: 0; stroke: #b0b0b0; stroke-opacity: 0.6; stroke-width: 0.8"/>
     </g>
     <g id="line2d_6">
      <g>
       <use xlink:href="#m03c382880f" x="211.274616" y="390.04" style="stroke: #000000; stroke-width: 0.8"/>
      </g>
     </g>
     <g id="text_3">
      <!-- 60 -->
      <g transform="translate(204.912116 404.638438) scale(0.1 -0.1)">
       <defs>
        <path id="DejaVuSans-36" d="M 2113 2584 
Q 1688 2584 1439 2293 
Q 1191 2003 1191 1497 
Q 1191 994 1439 701 
Q 1688 409 2113 409 
Q 2538 409 2786 701 
Q 3034 994 3034 1497 
Q 3034 2003 2786 2293 
Q 2538 2584 2113 2584 
z
M 3366 4563 
L 3366 3988 
Q 3128 4100 2886 4159 
Q 2644 4219 2406 4219 
Q 1781 4219 1451 3797 
Q 1122 3375 1075 2522 
Q 1259 2794 1537 2939 
Q 1816 3084 2150 3084 
Q 2853 3084 3261 2657 
Q 3669 2231 3669 1497 
Q 3669 778 3244 343 
Q 2819 -91 2113 -91 
Q 1303 -91 875 529 
Q 447 1150 447 2328 
Q 447 3434 972 4092 
Q 1497 4750 2381 4750 
Q 2619 4750 2861 4703 
Q 3103 4656 3366 4563 
z
" transform="scale(0.015625)"/>
       </defs>
       <use xlink:href="#DejaVuSans-36"/>
       <use xlink:href="#DejaVuSans-30" transform="translate(63.623047 0)"/>
      </g>
     </g>
    </g>
    <g id="xtick_4">
     <g id="line2d_7">
      <path d="M 271.406255 390.04 
L 271.406255 41.856 
" clip-path="url(#p66bcb286cb)" style="fill: none; stroke-dasharray: 2.96,1.28; stroke-dashoffset: 0; stroke: #b0b0b0; stroke-opacity: 0.6; stroke-width: 0.8"/>
     </g>
     <g id="line2d_8">
      <g>
       <use xlink:href="#m03c382880f" x="271.406255" y="390.04" style="stroke: #000000; stroke-width: 0.8"/>
      </g>
     </g>
     <g id="text_4">
      <!-- 80 -->
      <g transform="translate(265.043755 404.638438) scale(0.1 -0.1)">
       <defs>
        <path id="DejaVuSans-38" d="M 2034 2216 
Q 1584 2216 1326 1975 
Q 1069 1734 1069 1313 
Q 1069 891 1326 650 
Q 1584 409 2034 409 
Q 2484 409 2743 651 
Q 3003 894 3003 1313 
Q 3003 1734 2745 1975 
Q 2488 2216 2034 2216 
z
M 1403 2484 
Q 997 2584 770 2862 
Q 544 3141 544 3541 
Q 544 4100 942 4425 
Q 1341 4750 2034 4750 
Q 2731 4750 3128 4425 
Q 3525 4100 3525 3541 
Q 3525 3141 3298 2862 
Q 3072 2584 2669 2484 
Q 3125 2378 3379 2068 
Q 3634 1759 3634 1313 
Q 3634 634 3220 271 
Q 2806 -91 2034 -91 
Q 1263 -91 848 271 
Q 434 634 434 1313 
Q 434 1759 690 2068 
Q 947 2378 1403 2484 
z
M 1172 3481 
Q 1172 3119 1398 2916 
Q 1625 2713 2034 2713 
Q 2441 2713 2670 2916 
Q 2900 3119 2900 3481 
Q 2900 3844 2670 4047 
Q 2441 4250 2034 4250 
Q 1625 4250 1398 4047 
Q 1172 3844 1172 3481 
z
" transform="scale(0.015625)"/>
       </defs>
       <use xlink:href="#DejaVuSans-38"/>
       <use xlink:href="#DejaVuSans-30" transform="translate(63.623047 0)"/>
      </g>
     </g>
    </g>
    <g id="xtick_5">
     <g id="line2d_9">
      <path d="M 331.537895 390.04 
L 331.537895 41.856 
" clip-path="url(#p66bcb286cb)" style="fill: none; stroke-dasharray: 2.96,1.28; stroke-dashoffset: 0; stroke: #b0b0b0; stroke-opacity: 0.6; stroke-width: 0.8"/>
     </g>
     <g id="line2d_10">
      <g>
       <use xlink:href="#m03c382880f" x="331.537895" y="390.04" style="stroke: #000000; stroke-width: 0.8"/>
      </g>
     </g>
     <g id="text_5">
      <!-- 100 -->
      <g transform="translate(321.994145 404.638438) scale(0.1 -0.1)">
       <defs>
        <path id="DejaVuSans-31" d="M 794 531 
L 1825 531 
L 1825 4091 
L 703 3866 
L 703 4441 
L 1819 4666 
L 2450 4666 
L 2450 531 
L 3481 531 
L 3481 0 
L 794 0 
L 794 531 
z
" transform="scale(0.015625)"/>
       </defs>
       <use xlink:href="#DejaVuSans-31"/>
       <use xlink:href="#DejaVuSans-30" transform="translate(63.623047 0)"/>
       <use xlink:href="#DejaVuSans-30" transform="translate(127.246094 0)"/>
      </g>
     </g>
    </g>
    <g id="text_6">
     <!-- Quantity (Q) -->
     <g transform="translate(168.215476 418.316562) scale(0.1 -0.1)">
      <defs>
       <path id="DejaVuSans-51" d="M 2522 4238 
Q 1834 4238 1429 3725 
Q 1025 3213 1025 2328 
Q 1025 1447 1429 934 
Q 1834 422 2522 422 
Q 3209 422 3611 934 
Q 4013 1447 4013 2328 
Q 4013 3213 3611 3725 
Q 3209 4238 2522 4238 
z
M 3406 84 
L 4238 -825 
L 3475 -825 
L 2784 -78 
Q 2681 -84 2626 -87 
Q 2572 -91 2522 -91 
Q 1538 -91 948 567 
Q 359 1225 359 2328 
Q 359 3434 948 4092 
Q 1538 4750 2522 4750 
Q 3503 4750 4090 4092 
Q 4678 3434 4678 2328 
Q 4678 1516 4351 937 
Q 4025 359 3406 84 
z
" transform="scale(0.015625)"/>
       <path id="DejaVuSans-75" d="M 544 1381 
L 544 3500 
L 1119 3500 
L 1119 1403 
Q 1119 906 1312 657 
Q 1506 409 1894 409 
Q 2359 409 2629 706 
Q 2900 1003 2900 1516 
L 2900 3500 
L 3475 3500 
L 3475 0 
L 2900 0 
L 2900 538 
Q 2691 219 2414 64 
Q 2138 -91 1772 -91 
Q 1169 -91 856 284 
Q 544 659 544 1381 
z
M 1991 3584 
L 1991 3584 
z
" transform="scale(0.015625)"/>
       <path id="DejaVuSans-61" d="M 2194 1759 
Q 1497 1759 1228 1600 
Q 959 1441 959 1056 
Q 959 750 1161 570 
Q 1363 391 1709 391 
Q 2188 391 2477 730 
Q 2766 1069 2766 1631 
L 2766 1759 
L 2194 1759 
z
M 3341 1997 
L 3341 0 
L 2766 0 
L 2766 531 
Q 2569 213 2275 61 
Q 1981 -91 1556 -91 
Q 1019 -91 701 211 
Q 384 513 384 1019 
Q 384 1609 779 1909 
Q 1175 2209 1959 2209 
L 2766 2209 
L 2766 2266 
Q 2766 2663 2505 2880 
Q 2244 3097 1772 3097 
Q 1472 3097 1187 3025 
Q 903 2953 641 2809 
L 641 3341 
Q 956 3463 1253 3523 
Q 1550 3584 1831 3584 
Q 2591 3584 2966 3190 
Q 3341 2797 3341 1997 
z
" transform="scale(0.015625)"/>
       <path id="DejaVuSans-6e" d="M 3513 2113 
L 3513 0 
L 2938 0 
L 2938 2094 
Q 2938 2591 2744 2837 
Q 2550 3084 2163 3084 
Q 1697 3084 1428 2787 
Q 1159 2491 1159 1978 
L 1159 0 
L 581 0 
L 581 3500 
L 1159 3500 
L 1159 2956 
Q 1366 3272 1645 3428 
Q 1925 3584 2291 3584 
Q 2894 3584 3203 3211 
Q 3513 2838 3513 2113 
z
" transform="scale(0.015625)"/>
       <path id="DejaVuSans-74" d="M 1172 4494 
L 1172 3500 
L 2356 3500 
L 2356 3053 
L 1172 3053 
L 1172 1153 
Q 1172 725 1289 603 
Q 1406 481 1766 481 
L 2356 481 
L 2356 0 
L 1766 0 
Q 1100 0 847 248 
Q 594 497 594 1153 
L 594 3053 
L 172 3053 
L 172 3500 
L 594 3500 
L 594 4494 
L 1172 4494 
z
" transform="scale(0.015625)"/>
       <path id="DejaVuSans-69" d="M 603 3500 
L 1178 3500 
L 1178 0 
L 603 0 
L 603 3500 
z
M 603 4863 
L 1178 4863 
L 1178 4134 
L 603 4134 
L 603 4863 
z
" transform="scale(0.015625)"/>
       <path id="DejaVuSans-79" d="M 2059 -325 
Q 1816 -950 1584 -1140 
Q 1353 -1331 966 -1331 
L 506 -1331 
L 506 -850 
L 844 -850 
Q 1081 -850 1212 -737 
Q 1344 -625 1503 -206 
L 1606 56 
L 191 3500 
L 800 3500 
L 1894 763 
L 2988 3500 
L 3597 3500 
L 2059 -325 
z
" transform="scale(0.015625)"/>
       <path id="DejaVuSans-20" transform="scale(0.015625)"/>
       <path id="DejaVuSans-28" d="M 1984 4856 
Q 1566 4138 1362 3434 
Q 1159 2731 1159 2009 
Q 1159 1288 1364 580 
Q 1569 -128 1984 -844 
L 1484 -844 
Q 1016 -109 783 600 
Q 550 1309 550 2009 
Q 550 2706 781 3412 
Q 1013 4119 1484 4856 
L 1984 4856 
z
" transform="scale(0.015625)"/>
       <path id="DejaVuSans-29" d="M 513 4856 
L 1013 4856 
Q 1481 4119 1714 3412 
Q 1947 2706 1947 2009 
Q 1947 1309 1714 600 
Q 1481 -109 1013 -844 
L 513 -844 
Q 928 -128 1133 580 
Q 1338 1288 1338 2009 
Q 1338 2731 1133 3434 
Q 928 4138 513 4856 
z
" transform="scale(0.015625)"/>
      </defs>
      <use xlink:href="#DejaVuSans-51"/>
      <use xlink:href="#DejaVuSans-75" transform="translate(78.710938 0)"/>
      <use xlink:href="#DejaVuSans-61" transform="translate(142.089844 0)"/>
      <use xlink:href="#DejaVuSans-6e" transform="translate(203.369141 0)"/>
      <use xlink:href="#DejaVuSans-74" transform="translate(266.748047 0)"/>
      <use xlink:href="#DejaVuSans-69" transform="translate(305.957031 0)"/>
      <use xlink:href="#DejaVuSans-74" transform="translate(333.740234 0)"/>
      <use xlink:href="#DejaVuSans-79" transform="translate(372.949219 0)"/>
      <use xlink:href="#DejaVuSans-20" transform="translate(432.128906 0)"/>
      <use xlink:href="#DejaVuSans-28" transform="translate(463.916016 0)"/>
      <use xlink:href="#DejaVuSans-51" transform="translate(502.929688 0)"/>
      <use xlink:href="#DejaVuSans-29" transform="translate(581.640625 0)"/>
     </g>
    </g>
   </g>
   <g id="matplotlib.axis_2">
    <g id="ytick_1">
     <g id="line2d_11">
      <path d="M 36.892862 390.04 
L 361.603714 390.04 
" clip-path="url(#p66bcb286cb)" style="fill: none; stroke-dasharray: 2.96,1.28; stroke-dashoffset: 0; stroke: #b0b0b0; stroke-opacity: 0.6; stroke-width: 0.8"/>
     </g>
     <g id="line2d_12">
      <defs>
       <path id="mbf2bc53e8b" d="M 0 0 
L -3.5 0 
" style="stroke: #000000; stroke-width: 0.8"/>
      </defs>
      <g>
       <use xlink:href="#mbf2bc53e8b" x="36.892862" y="390.04" style="stroke: #000000; stroke-width: 0.8"/>
      </g>
     </g>
     <g id="text_7">
      <!-- 0 -->
      <g transform="translate(23.530362 393.839219) scale(0.1 -0.1)">
       <use xlink:href="#DejaVuSans-30"/>
      </g>
     </g>
    </g>
    <g id="ytick_2">
     <g id="line2d_13">
      <path d="M 36.892862 332.009333 
L 361.603714 332.009333 
" clip-path="url(#p66bcb286cb)" style="fill: none; stroke-dasharray: 2.96,1.28; stroke-dashoffset: 0; stroke: #b0b0b0; stroke-opacity: 0.6; stroke-width: 0.8"/>
     </g>
     <g id="line2d_14">
      <g>
       <use xlink:href="#mbf2bc53e8b" x="36.892862" y="332.009333" style="stroke: #000000; stroke-width: 0.8"/>
      </g>
     </g>
     <g id="text_8">
      <!-- 20 -->
      <g transform="translate(17.167862 335.808552) scale(0.1 -0.1)">
       <use xlink:href="#DejaVuSans-32"/>
       <use xlink:href="#DejaVuSans-30" transform="translate(63.623047 0)"/>
      </g>
     </g>
    </g>
    <g id="ytick_3">
     <g id="line2d_15">
      <path d="M 36.892862 273.978667 
L 361.603714 273.978667 
" clip-path="url(#p66bcb286cb)" style="fill: none; stroke-dasharray: 2.96,1.28; stroke-dashoffset: 0; stroke: #b0b0b0; stroke-opacity: 0.6; stroke-width: 0.8"/>
     </g>
     <g id="line2d_16">
      <g>
       <use xlink:href="#mbf2bc53e8b" x="36.892862" y="273.978667" style="stroke: #000000; stroke-width: 0.8"/>
      </g>
     </g>
     <g id="text_9">
      <!-- 40 -->
      <g transform="translate(17.167862 277.777885) scale(0.1 -0.1)">
       <use xlink:href="#DejaVuSans-34"/>
       <use xlink:href="#DejaVuSans-30" transform="translate(63.623047 0)"/>
      </g>
     </g>
    </g>
    <g id="ytick_4">
     <g id="line2d_17">
      <path d="M 36.892862 215.948 
L 361.603714 215.948 
" clip-path="url(#p66bcb286cb)" style="fill: none; stroke-dasharray: 2.96,1.28; stroke-dashoffset: 0; stroke: #b0b0b0; stroke-opacity: 0.6; stroke-width: 0.8"/>
     </g>
     <g id="line2d_18">
      <g>
       <use xlink:href="#mbf2bc53e8b" x="36.892862" y="215.948" style="stroke: #000000; stroke-width: 0.8"/>
      </g>
     </g>
     <g id="text_10">
      <!-- 60 -->
      <g transform="translate(17.167862 219.747219) scale(0.1 -0.1)">
       <use xlink:href="#DejaVuSans-36"/>
       <use xlink:href="#DejaVuSans-30" transform="translate(63.623047 0)"/>
      </g>
     </g>
    </g>
    <g id="ytick_5">
     <g id="line2d_19">
      <path d="M 36.892862 157.917333 
L 361.603714 157.917333 
" clip-path="url(#p66bcb286cb)" style="fill: none; stroke-dasharray: 2.96,1.28; stroke-dashoffset: 0; stroke: #b0b0b0; stroke-opacity: 0.6; stroke-width: 0.8"/>
     </g>
     <g id="line2d_20">
      <g>
       <use xlink:href="#mbf2bc53e8b" x="36.892862" y="157.917333" style="stroke: #000000; stroke-width: 0.8"/>
      </g>
     </g>
     <g id="text_11">
      <!-- 80 -->
      <g transform="translate(17.167862 161.716552) scale(0.1 -0.1)">
       <use xlink:href="#DejaVuSans-38"/>
       <use xlink:href="#DejaVuSans-30" transform="translate(63.623047 0)"/>
      </g>
     </g>
    </g>
    <g id="ytick_6">
     <g id="line2d_21">
      <path d="M 36.892862 99.886667 
L 361.603714 99.886667 
" clip-path="url(#p66bcb286cb)" style="fill: none; stroke-dasharray: 2.96,1.28; stroke-dashoffset: 0; stroke: #b0b0b0; stroke-opacity: 0.6; stroke-width: 0.8"/>
     </g>
     <g id="line2d_22">
      <g>
       <use xlink:href="#mbf2bc53e8b" x="36.892862" y="99.886667" style="stroke: #000000; stroke-width: 0.8"/>
      </g>
     </g>
     <g id="text_12">
      <!-- 100 -->
      <g transform="translate(10.805362 103.685885) scale(0.1 -0.1)">
       <use xlink:href="#DejaVuSans-31"/>
       <use xlink:href="#DejaVuSans-30" transform="translate(63.623047 0)"/>
       <use xlink:href="#DejaVuSans-30" transform="translate(127.246094 0)"/>
      </g>
     </g>
    </g>
    <g id="ytick_7">
     <g id="line2d_23">
      <path d="M 36.892862 41.856 
L 361.603714 41.856 
" clip-path="url(#p66bcb286cb)" style="fill: none; stroke-dasharray: 2.96,1.28; stroke-dashoffset: 0; stroke: #b0b0b0; stroke-opacity: 0.6; stroke-width: 0.8"/>
     </g>
     <g id="line2d_24">
      <g>
       <use xlink:href="#mbf2bc53e8b" x="36.892862" y="41.856" style="stroke: #000000; stroke-width: 0.8"/>
      </g>
     </g>
     <g id="text_13">
      <!-- 120 -->
      <g transform="translate(10.805362 45.655219) scale(0.1 -0.1)">
       <use xlink:href="#DejaVuSans-31"/>
       <use xlink:href="#DejaVuSans-32" transform="translate(63.623047 0)"/>
       <use xlink:href="#DejaVuSans-30" transform="translate(127.246094 0)"/>
      </g>
     </g>
    </g>
    <g id="text_14">
     <!-- Cost / Price -->
     <g transform="translate(4.725674 244.123781) rotate(-90) scale(0.1 -0.1)">
      <defs>
       <path id="DejaVuSans-43" d="M 4122 4306 
L 4122 3641 
Q 3803 3938 3442 4084 
Q 3081 4231 2675 4231 
Q 1875 4231 1450 3742 
Q 1025 3253 1025 2328 
Q 1025 1406 1450 917 
Q 1875 428 2675 428 
Q 3081 428 3442 575 
Q 3803 722 4122 1019 
L 4122 359 
Q 3791 134 3420 21 
Q 3050 -91 2638 -91 
Q 1578 -91 968 557 
Q 359 1206 359 2328 
Q 359 3453 968 4101 
Q 1578 4750 2638 4750 
Q 3056 4750 3426 4639 
Q 3797 4528 4122 4306 
z
" transform="scale(0.015625)"/>
       <path id="DejaVuSans-6f" d="M 1959 3097 
Q 1497 3097 1228 2736 
Q 959 2375 959 1747 
Q 959 1119 1226 758 
Q 1494 397 1959 397 
Q 2419 397 2687 759 
Q 2956 1122 2956 1747 
Q 2956 2369 2687 2733 
Q 2419 3097 1959 3097 
z
M 1959 3584 
Q 2709 3584 3137 3096 
Q 3566 2609 3566 1747 
Q 3566 888 3137 398 
Q 2709 -91 1959 -91 
Q 1206 -91 779 398 
Q 353 888 353 1747 
Q 353 2609 779 3096 
Q 1206 3584 1959 3584 
z
" transform="scale(0.015625)"/>
       <path id="DejaVuSans-73" d="M 2834 3397 
L 2834 2853 
Q 2591 2978 2328 3040 
Q 2066 3103 1784 3103 
Q 1356 3103 1142 2972 
Q 928 2841 928 2578 
Q 928 2378 1081 2264 
Q 1234 2150 1697 2047 
L 1894 2003 
Q 2506 1872 2764 1633 
Q 3022 1394 3022 966 
Q 3022 478 2636 193 
Q 2250 -91 1575 -91 
Q 1294 -91 989 -36 
Q 684 19 347 128 
L 347 722 
Q 666 556 975 473 
Q 1284 391 1588 391 
Q 1994 391 2212 530 
Q 2431 669 2431 922 
Q 2431 1156 2273 1281 
Q 2116 1406 1581 1522 
L 1381 1569 
Q 847 1681 609 1914 
Q 372 2147 372 2553 
Q 372 3047 722 3315 
Q 1072 3584 1716 3584 
Q 2034 3584 2315 3537 
Q 2597 3491 2834 3397 
z
" transform="scale(0.015625)"/>
       <path id="DejaVuSans-2f" d="M 1625 4666 
L 2156 4666 
L 531 -594 
L 0 -594 
L 1625 4666 
z
" transform="scale(0.015625)"/>
       <path id="DejaVuSans-50" d="M 1259 4147 
L 1259 2394 
L 2053 2394 
Q 2494 2394 2734 2622 
Q 2975 2850 2975 3272 
Q 2975 3691 2734 3919 
Q 2494 4147 2053 4147 
L 1259 4147 
z
M 628 4666 
L 2053 4666 
Q 2838 4666 3239 4311 
Q 3641 3956 3641 3272 
Q 3641 2581 3239 2228 
Q 2838 1875 2053 1875 
L 1259 1875 
L 1259 0 
L 628 0 
L 628 4666 
z
" transform="scale(0.015625)"/>
       <path id="DejaVuSans-72" d="M 2631 2963 
Q 2534 3019 2420 3045 
Q 2306 3072 2169 3072 
Q 1681 3072 1420 2755 
Q 1159 2438 1159 1844 
L 1159 0 
L 581 0 
L 581 3500 
L 1159 3500 
L 1159 2956 
Q 1341 3275 1631 3429 
Q 1922 3584 2338 3584 
Q 2397 3584 2469 3576 
Q 2541 3569 2628 3553 
L 2631 2963 
z
" transform="scale(0.015625)"/>
       <path id="DejaVuSans-63" d="M 3122 3366 
L 3122 2828 
Q 2878 2963 2633 3030 
Q 2388 3097 2138 3097 
Q 1578 3097 1268 2742 
Q 959 2388 959 1747 
Q 959 1106 1268 751 
Q 1578 397 2138 397 
Q 2388 397 2633 464 
Q 2878 531 3122 666 
L 3122 134 
Q 2881 22 2623 -34 
Q 2366 -91 2075 -91 
Q 1284 -91 818 406 
Q 353 903 353 1747 
Q 353 2603 823 3093 
Q 1294 3584 2113 3584 
Q 2378 3584 2631 3529 
Q 2884 3475 3122 3366 
z
" transform="scale(0.015625)"/>
       <path id="DejaVuSans-65" d="M 3597 1894 
L 3597 1613 
L 953 1613 
Q 991 1019 1311 708 
Q 1631 397 2203 397 
Q 2534 397 2845 478 
Q 3156 559 3463 722 
L 3463 178 
Q 3153 47 2828 -22 
Q 2503 -91 2169 -91 
Q 1331 -91 842 396 
Q 353 884 353 1716 
Q 353 2575 817 3079 
Q 1281 3584 2069 3584 
Q 2775 3584 3186 3129 
Q 3597 2675 3597 1894 
z
M 3022 2063 
Q 3016 2534 2758 2815 
Q 2500 3097 2075 3097 
Q 1594 3097 1305 2825 
Q 1016 2553 972 2059 
L 3022 2063 
z
" transform="scale(0.015625)"/>
      </defs>
      <use xlink:href="#DejaVuSans-43"/>
      <use xlink:href="#DejaVuSans-6f" transform="translate(69.824219 0)"/>
      <use xlink:href="#DejaVuSans-73" transform="translate(131.005859 0)"/>
      <use xlink:href="#DejaVuSans-74" transform="translate(183.105469 0)"/>
      <use xlink:href="#DejaVuSans-20" transform="translate(222.314453 0)"/>
      <use xlink:href="#DejaVuSans-2f" transform="translate(254.101562 0)"/>
      <use xlink:href="#DejaVuSans-20" transform="translate(287.792969 0)"/>
      <use xlink:href="#DejaVuSans-50" transform="translate(319.580078 0)"/>
      <use xlink:href="#DejaVuSans-72" transform="translate(378.132812 0)"/>
      <use xlink:href="#DejaVuSans-69" transform="translate(419.246094 0)"/>
      <use xlink:href="#DejaVuSans-63" transform="translate(447.029297 0)"/>
      <use xlink:href="#DejaVuSans-65" transform="translate(502.009766 0)"/>
     </g>
    </g>
   </g>
   <g id="line2d_25">
    <path d="M 33.88628 278.551483 
L 39.140267 286.208115 
L 44.394254 293.439441 
L 48.991492 299.417968 
L 53.588731 305.070871 
L 58.185969 310.39815 
L 62.783208 315.399804 
L 67.380447 320.075835 
L 71.977685 324.42624 
L 76.574924 328.451022 
L 81.172162 332.150179 
L 85.769401 335.523712 
L 89.709891 338.156142 
L 93.650381 340.549337 
L 97.590871 342.703298 
L 101.531362 344.618025 
L 105.471852 346.293518 
L 109.412342 347.729776 
L 113.352832 348.9268 
L 117.293322 349.884591 
L 121.233813 350.603147 
L 125.174303 351.082469 
L 129.114793 351.322556 
L 133.055283 351.32341 
L 136.995773 351.085029 
L 140.936264 350.607414 
L 144.876754 349.890565 
L 148.817244 348.934482 
L 152.757734 347.739165 
L 156.698224 346.304614 
L 160.638714 344.630828 
L 164.579205 342.717808 
L 168.519695 340.565554 
L 172.460185 338.174066 
L 176.400675 335.543344 
L 180.341165 332.673387 
L 184.938404 329.022739 
L 189.535643 325.046467 
L 194.132881 320.74457 
L 198.73012 316.11705 
L 203.327358 311.163905 
L 207.924597 305.885135 
L 212.521835 300.280741 
L 217.119074 294.350723 
L 221.716312 288.095081 
L 226.970299 280.547052 
L 232.224286 272.573718 
L 237.478273 264.175079 
L 242.73226 255.351134 
L 247.986247 246.101884 
L 253.240234 236.427329 
L 258.494221 226.327469 
L 264.404956 214.456754 
L 270.315691 202.047762 
L 276.226427 189.100493 
L 282.137162 175.614947 
L 288.047897 161.591124 
L 293.958633 147.029024 
L 300.526116 130.217601 
L 307.0936 112.741639 
L 313.661084 94.601137 
L 320.228567 75.796095 
L 326.796051 56.326515 
L 333.363535 36.192395 
L 339.931018 15.393736 
L 344.965275 -1 
L 344.965275 -1 
" clip-path="url(#p66bcb286cb)" style="fill: none; stroke: #000000; stroke-width: 2; stroke-linecap: square"/>
   </g>
   <g id="line2d_26">
    <path d="M 35.599855 -1 
L 35.856525 14.812011 
L 36.513273 45.94836 
L 37.170022 70.681494 
L 38.483518 107.571862 
L 39.797015 133.864938 
L 41.110512 153.638098 
L 42.424009 169.113045 
L 43.737505 181.603643 
L 45.051002 191.936645 
L 46.364499 200.658286 
L 47.677996 208.143955 
L 48.991492 214.660147 
L 50.961737 223.02804 
L 52.931983 230.104413 
L 54.902228 236.200912 
L 56.872473 241.534693 
L 58.842718 246.26171 
L 60.812963 250.496855 
L 63.439956 255.525092 
L 66.06695 259.982387 
L 68.693943 263.9785 
L 71.320937 267.59467 
L 73.94793 270.892315 
L 77.231672 274.637474 
L 80.515414 278.028611 
L 83.799156 281.118741 
L 87.739646 284.486112 
L 91.680136 287.531678 
L 95.620626 290.295999 
L 99.561116 292.810326 
L 104.158355 295.460093 
L 108.755594 297.83306 
L 113.352832 299.952828 
L 117.950071 301.838012 
L 122.547309 303.503492 
L 127.801296 305.153211 
L 133.055283 306.546137 
L 138.30927 307.693947 
L 143.563257 308.606139 
L 148.817244 309.290519 
L 154.071231 309.753561 
L 159.325218 310.000681 
L 164.579205 310.036442 
L 169.833192 309.864717 
L 175.087179 309.488816 
L 180.341165 308.911583 
L 186.251901 308.024587 
L 192.162636 306.888897 
L 198.073371 305.507101 
L 203.984107 303.881435 
L 209.894842 302.013839 
L 215.805577 299.906006 
L 221.716312 297.559418 
L 227.627048 294.975379 
L 233.537783 292.155043 
L 239.448518 289.099429 
L 245.359254 285.809448 
L 251.269989 282.28591 
L 257.837473 278.097826 
L 264.404956 273.623186 
L 270.97244 268.862784 
L 277.539924 263.817329 
L 284.107407 258.487455 
L 290.674891 252.873733 
L 297.242374 246.976678 
L 303.809858 240.796755 
L 310.377342 234.334385 
L 317.601574 226.900008 
L 324.825806 219.124794 
L 332.050038 211.00916 
L 339.27427 202.553485 
L 346.498502 193.758112 
L 353.722734 184.623354 
L 360.946966 175.149496 
L 361.603714 174.27143 
L 361.603714 174.27143 
" clip-path="url(#p66bcb286cb)" style="fill: none; stroke: #0000ff; stroke-width: 2; stroke-linecap: square"/>
   </g>
   <g id="line2d_27">
    <path d="M 33.88628 276.270878 
L 40.453764 281.076087 
L 47.021247 285.604404 
L 53.588731 289.85583 
L 60.156215 293.830365 
L 66.723698 297.528008 
L 73.291182 300.94876 
L 79.201917 303.790695 
L 85.112652 306.408347 
L 91.023388 308.801718 
L 96.934123 310.970806 
L 102.844858 312.915613 
L 108.755594 314.636137 
L 114.666329 316.13238 
L 120.577064 317.40434 
L 126.487799 318.452018 
L 132.398535 319.275415 
L 138.30927 319.874529 
L 144.220005 320.249361 
L 150.130741 320.399911 
L 156.041476 320.326179 
L 161.952211 320.028165 
L 167.862946 319.505869 
L 173.773682 318.759292 
L 179.684417 317.788432 
L 185.595152 316.593289 
L 191.505888 315.173865 
L 197.416623 313.530159 
L 203.327358 311.662171 
L 209.238094 309.569901 
L 215.148829 307.253349 
L 221.059564 304.712515 
L 226.970299 301.947398 
L 232.881035 298.958 
L 239.448518 295.3734 
L 246.016002 291.511908 
L 252.583486 287.373524 
L 259.150969 282.95825 
L 265.718453 278.266084 
L 272.285937 273.297026 
L 278.85342 268.051077 
L 285.420904 262.528237 
L 291.988388 256.728505 
L 298.555871 250.651882 
L 305.780103 243.647787 
L 313.004335 236.308654 
L 320.228567 228.634482 
L 327.452799 220.625271 
L 334.677031 212.281022 
L 341.901263 203.601734 
L 349.125495 194.587407 
L 356.349727 185.238042 
L 361.603714 178.228067 
L 361.603714 178.228067 
" clip-path="url(#p66bcb286cb)" style="fill: none; stroke: #ffa500; stroke-width: 2; stroke-linecap: square"/>
   </g>
   <g id="line2d_28">
    <path d="M 33.88628 215.948 
L 361.603714 215.948 
L 361.603714 215.948 
" clip-path="url(#p66bcb286cb)" style="fill: none; stroke-dasharray: 7.4,3.2; stroke-dashoffset: 0; stroke: #008000; stroke-width: 2"/>
   </g>
   <g id="line2d_29">
    <path d="M 263.748208 390.04 
L 263.748208 41.856 
" clip-path="url(#p66bcb286cb)" style="fill: none; stroke-dasharray: 1.5,2.475; stroke-dashoffset: 0; stroke: #ff0000; stroke-opacity: 0.7; stroke-width: 1.5"/>
   </g>
   <g id="patch_4">
    <path d="M 36.892862 390.04 
L 36.892862 41.856 
" style="fill: none; stroke: #000000; stroke-width: 0.8; stroke-linejoin: miter; stroke-linecap: square"/>
   </g>
   <g id="patch_5">
    <path d="M 361.603714 390.04 
L 361.603714 41.856 
" style="fill: none; stroke: #000000; stroke-width: 0.8; stroke-linejoin: miter; stroke-linecap: square"/>
   </g>
   <g id="patch_6">
    <path d="M 36.892862 390.04 
L 361.603714 390.04 
" style="fill: none; stroke: #000000; stroke-width: 0.8; stroke-linejoin: miter; stroke-linecap: square"/>
   </g>
   <g id="patch_7">
    <path d="M 36.892862 41.856 
L 361.603714 41.856 
" style="fill: none; stroke: #000000; stroke-width: 0.8; stroke-linejoin: miter; stroke-linecap: square"/>
   </g>
   <g id="text_15">
    <!-- MC = MR -->
    <g style="fill: #ff0000" transform="translate(203.616569 196.045587) scale(0.1 -0.1)">
     <defs>
      <path id="DejaVuSans-4d" d="M 628 4666 
L 1569 4666 
L 2759 1491 
L 3956 4666 
L 4897 4666 
L 4897 0 
L 4281 0 
L 4281 4097 
L 3078 897 
L 2444 897 
L 1241 4097 
L 1241 0 
L 628 0 
L 628 4666 
z
" transform="scale(0.015625)"/>
      <path id="DejaVuSans-3d" d="M 678 2906 
L 4684 2906 
L 4684 2381 
L 678 2381 
L 678 2906 
z
M 678 1631 
L 4684 1631 
L 4684 1100 
L 678 1100 
L 678 1631 
z
" transform="scale(0.015625)"/>
      <path id="DejaVuSans-52" d="M 2841 2188 
Q 3044 2119 3236 1894 
Q 3428 1669 3622 1275 
L 4263 0 
L 3584 0 
L 2988 1197 
Q 2756 1666 2539 1819 
Q 2322 1972 1947 1972 
L 1259 1972 
L 1259 0 
L 628 0 
L 628 4666 
L 2053 4666 
Q 2853 4666 3247 4331 
Q 3641 3997 3641 3322 
Q 3641 2881 3436 2590 
Q 3231 2300 2841 2188 
z
M 1259 4147 
L 1259 2491 
L 2053 2491 
Q 2509 2491 2742 2702 
Q 2975 2913 2975 3322 
Q 2975 3731 2742 3939 
Q 2509 4147 2053 4147 
L 1259 4147 
z
" transform="scale(0.015625)"/>
     </defs>
     <use xlink:href="#DejaVuSans-4d"/>
     <use xlink:href="#DejaVuSans-43" transform="translate(86.279297 0)"/>
     <use xlink:href="#DejaVuSans-20" transform="translate(156.103516 0)"/>
     <use xlink:href="#DejaVuSans-3d" transform="translate(187.890625 0)"/>
     <use xlink:href="#DejaVuSans-20" transform="translate(271.679688 0)"/>
     <use xlink:href="#DejaVuSans-4d" transform="translate(303.466797 0)"/>
     <use xlink:href="#DejaVuSans-52" transform="translate(389.746094 0)"/>
    </g>
    <!-- Q* = 77.5 -->
    <g style="fill: #ff0000" transform="translate(203.616569 207.2434) scale(0.1 -0.1)">
     <defs>
      <path id="DejaVuSans-2a" d="M 3009 3897 
L 1888 3291 
L 3009 2681 
L 2828 2375 
L 1778 3009 
L 1778 1831 
L 1422 1831 
L 1422 3009 
L 372 2375 
L 191 2681 
L 1313 3291 
L 191 3897 
L 372 4206 
L 1422 3572 
L 1422 4750 
L 1778 4750 
L 1778 3572 
L 2828 4206 
L 3009 3897 
z
" transform="scale(0.015625)"/>
      <path id="DejaVuSans-37" d="M 525 4666 
L 3525 4666 
L 3525 4397 
L 1831 0 
L 1172 0 
L 2766 4134 
L 525 4134 
L 525 4666 
z
" transform="scale(0.015625)"/>
      <path id="DejaVuSans-2e" d="M 684 794 
L 1344 794 
L 1344 0 
L 684 0 
L 684 794 
z
" transform="scale(0.015625)"/>
      <path id="DejaVuSans-35" d="M 691 4666 
L 3169 4666 
L 3169 4134 
L 1269 4134 
L 1269 2991 
Q 1406 3038 1543 3061 
Q 1681 3084 1819 3084 
Q 2600 3084 3056 2656 
Q 3513 2228 3513 1497 
Q 3513 744 3044 326 
Q 2575 -91 1722 -91 
Q 1428 -91 1123 -41 
Q 819 9 494 109 
L 494 744 
Q 775 591 1075 516 
Q 1375 441 1709 441 
Q 2250 441 2565 725 
Q 2881 1009 2881 1497 
Q 2881 1984 2565 2268 
Q 2250 2553 1709 2553 
Q 1456 2553 1204 2497 
Q 953 2441 691 2322 
L 691 4666 
z
" transform="scale(0.015625)"/>
     </defs>
     <use xlink:href="#DejaVuSans-51"/>
     <use xlink:href="#DejaVuSans-2a" transform="translate(78.710938 0)"/>
     <use xlink:href="#DejaVuSans-20" transform="translate(128.710938 0)"/>
     <use xlink:href="#DejaVuSans-3d" transform="translate(160.498047 0)"/>
     <use xlink:href="#DejaVuSans-20" transform="translate(244.287109 0)"/>
     <use xlink:href="#DejaVuSans-37" transform="translate(276.074219 0)"/>
     <use xlink:href="#DejaVuSans-37" transform="translate(339.697266 0)"/>
     <use xlink:href="#DejaVuSans-2e" transform="translate(403.320312 0)"/>
     <use xlink:href="#DejaVuSans-35" transform="translate(435.107422 0)"/>
    </g>
   </g>
   <g id="text_16">
    <!-- Profit -->
    <g transform="translate(138.294207 247.864867) scale(0.1 -0.1)">
     <defs>
      <path id="DejaVuSans-66" d="M 2375 4863 
L 2375 4384 
L 1825 4384 
Q 1516 4384 1395 4259 
Q 1275 4134 1275 3809 
L 1275 3500 
L 2222 3500 
L 2222 3053 
L 1275 3053 
L 1275 0 
L 697 0 
L 697 3053 
L 147 3053 
L 147 3500 
L 697 3500 
L 697 3744 
Q 697 4328 969 4595 
Q 1241 4863 1831 4863 
L 2375 4863 
z
" transform="scale(0.015625)"/>
     </defs>
     <use xlink:href="#DejaVuSans-50"/>
     <use xlink:href="#DejaVuSans-72" transform="translate(58.552734 0)"/>
     <use xlink:href="#DejaVuSans-6f" transform="translate(97.416016 0)"/>
     <use xlink:href="#DejaVuSans-66" transform="translate(158.597656 0)"/>
     <use xlink:href="#DejaVuSans-69" transform="translate(193.802734 0)"/>
     <use xlink:href="#DejaVuSans-74" transform="translate(221.585938 0)"/>
    </g>
   </g>
   <g id="text_17">
    <!-- Perfect Competition - Short Run -->
    <g transform="translate(104.118288 22.418625) scale(0.12 -0.12)">
     <defs>
      <path id="DejaVuSans-6d" d="M 3328 2828 
Q 3544 3216 3844 3400 
Q 4144 3584 4550 3584 
Q 5097 3584 5394 3201 
Q 5691 2819 5691 2113 
L 5691 0 
L 5113 0 
L 5113 2094 
Q 5113 2597 4934 2840 
Q 4756 3084 4391 3084 
Q 3944 3084 3684 2787 
Q 3425 2491 3425 1978 
L 3425 0 
L 2847 0 
L 2847 2094 
Q 2847 2600 2669 2842 
Q 2491 3084 2119 3084 
Q 1678 3084 1418 2786 
Q 1159 2488 1159 1978 
L 1159 0 
L 581 0 
L 581 3500 
L 1159 3500 
L 1159 2956 
Q 1356 3278 1631 3431 
Q 1906 3584 2284 3584 
Q 2666 3584 2933 3390 
Q 3200 3197 3328 2828 
z
" transform="scale(0.015625)"/>
      <path id="DejaVuSans-70" d="M 1159 525 
L 1159 -1331 
L 581 -1331 
L 581 3500 
L 1159 3500 
L 1159 2969 
Q 1341 3281 1617 3432 
Q 1894 3584 2278 3584 
Q 2916 3584 3314 3078 
Q 3713 2572 3713 1747 
Q 3713 922 3314 415 
Q 2916 -91 2278 -91 
Q 1894 -91 1617 61 
Q 1341 213 1159 525 
z
M 3116 1747 
Q 3116 2381 2855 2742 
Q 2594 3103 2138 3103 
Q 1681 3103 1420 2742 
Q 1159 2381 1159 1747 
Q 1159 1113 1420 752 
Q 1681 391 2138 391 
Q 2594 391 2855 752 
Q 3116 1113 3116 1747 
z
" transform="scale(0.015625)"/>
      <path id="DejaVuSans-2d" d="M 313 2009 
L 1997 2009 
L 1997 1497 
L 313 1497 
L 313 2009 
z
" transform="scale(0.015625)"/>
      <path id="DejaVuSans-53" d="M 3425 4513 
L 3425 3897 
Q 3066 4069 2747 4153 
Q 2428 4238 2131 4238 
Q 1616 4238 1336 4038 
Q 1056 3838 1056 3469 
Q 1056 3159 1242 3001 
Q 1428 2844 1947 2747 
L 2328 2669 
Q 3034 2534 3370 2195 
Q 3706 1856 3706 1288 
Q 3706 609 3251 259 
Q 2797 -91 1919 -91 
Q 1588 -91 1214 -16 
Q 841 59 441 206 
L 441 856 
Q 825 641 1194 531 
Q 1563 422 1919 422 
Q 2459 422 2753 634 
Q 3047 847 3047 1241 
Q 3047 1584 2836 1778 
Q 2625 1972 2144 2069 
L 1759 2144 
Q 1053 2284 737 2584 
Q 422 2884 422 3419 
Q 422 4038 858 4394 
Q 1294 4750 2059 4750 
Q 2388 4750 2728 4690 
Q 3069 4631 3425 4513 
z
" transform="scale(0.015625)"/>
      <path id="DejaVuSans-68" d="M 3513 2113 
L 3513 0 
L 2938 0 
L 2938 2094 
Q 2938 2591 2744 2837 
Q 2550 3084 2163 3084 
Q 1697 3084 1428 2787 
Q 1159 2491 1159 1978 
L 1159 0 
L 581 0 
L 581 4863 
L 1159 4863 
L 1159 2956 
Q 1366 3272 1645 3428 
Q 1925 3584 2291 3584 
Q 2894 3584 3203 3211 
Q 3513 2838 3513 2113 
z
" transform="scale(0.015625)"/>
     </defs>
     <use xlink:href="#DejaVuSans-50"/>
     <use xlink:href="#DejaVuSans-65" transform="translate(56.677734 0)"/>
     <use xlink:href="#DejaVuSans-72" transform="translate(118.201172 0)"/>
     <use xlink:href="#DejaVuSans-66" transform="translate(159.314453 0)"/>
     <use xlink:href="#DejaVuSans-65" transform="translate(194.519531 0)"/>
     <use xlink:href="#DejaVuSans-63" transform="translate(256.042969 0)"/>
     <use xlink:href="#DejaVuSans-74" transform="translate(311.023438 0)"/>
     <use xlink:href="#DejaVuSans-20" transform="translate(350.232422 0)"/>
     <use xlink:href="#DejaVuSans-43" transform="translate(382.019531 0)"/>
     <use xlink:href="#DejaVuSans-6f" transform="translate(451.84375 0)"/>
     <use xlink:href="#DejaVuSans-6d" transform="translate(513.025391 0)"/>
     <use xlink:href="#DejaVuSans-70" transform="translate(610.4375 0)"/>
     <use xlink:href="#DejaVuSans-65" transform="translate(673.914062 0)"/>
     <use xlink:href="#DejaVuSans-74" transform="translate(735.4375 0)"/>
     <use xlink:href="#DejaVuSans-69" transform="translate(774.646484 0)"/>
     <use xlink:href="#DejaVuSans-74" transform="translate(802.429688 0)"/>
     <use xlink:href="#DejaVuSans-69" transform="translate(841.638672 0)"/>
     <use xlink:href="#DejaVuSans-6f" transform="translate(869.421875 0)"/>
     <use xlink:href="#DejaVuSans-6e" transform="translate(930.603516 0)"/>
     <use xlink:href="#DejaVuSans-20" transform="translate(993.982422 0)"/>
     <use xlink:href="#DejaVuSans-2d" transform="translate(1025.769531 0)"/>
     <use xlink:href="#DejaVuSans-20" transform="translate(1061.853516 0)"/>
     <use xlink:href="#DejaVuSans-53" transform="translate(1093.640625 0)"/>
     <use xlink:href="#DejaVuSans-68" transform="translate(1157.117188 0)"/>
     <use xlink:href="#DejaVuSans-6f" transform="translate(1220.496094 0)"/>
     <use xlink:href="#DejaVuSans-72" transform="translate(1281.677734 0)"/>
     <use xlink:href="#DejaVuSans-74" transform="translate(1322.791016 0)"/>
     <use xlink:href="#DejaVuSans-20" transform="translate(1362 0)"/>
     <use xlink:href="#DejaVuSans-52" transform="translate(1393.787109 0)"/>
     <use xlink:href="#DejaVuSans-75" transform="translate(1458.769531 0)"/>
     <use xlink:href="#DejaVuSans-6e" transform="translate(1522.148438 0)"/>
    </g>
    <!-- Profit Maximization at MC = MR -->
    <g transform="translate(104.395788 35.856) scale(0.12 -0.12)">
     <defs>
      <path id="DejaVuSans-78" d="M 3513 3500 
L 2247 1797 
L 3578 0 
L 2900 0 
L 1881 1375 
L 863 0 
L 184 0 
L 1544 1831 
L 300 3500 
L 978 3500 
L 1906 2253 
L 2834 3500 
L 3513 3500 
z
" transform="scale(0.015625)"/>
      <path id="DejaVuSans-7a" d="M 353 3500 
L 3084 3500 
L 3084 2975 
L 922 459 
L 3084 459 
L 3084 0 
L 275 0 
L 275 525 
L 2438 3041 
L 353 3041 
L 353 3500 
z
" transform="scale(0.015625)"/>
     </defs>
     <use xlink:href="#DejaVuSans-50"/>
     <use xlink:href="#DejaVuSans-72" transform="translate(58.552734 0)"/>
     <use xlink:href="#DejaVuSans-6f" transform="translate(97.416016 0)"/>
     <use xlink:href="#DejaVuSans-66" transform="translate(158.597656 0)"/>
     <use xlink:href="#DejaVuSans-69" transform="translate(193.802734 0)"/>
     <use xlink:href="#DejaVuSans-74" transform="translate(221.585938 0)"/>
     <use xlink:href="#DejaVuSans-20" transform="translate(260.794922 0)"/>
     <use xlink:href="#DejaVuSans-4d" transform="translate(292.582031 0)"/>
     <use xlink:href="#DejaVuSans-61" transform="translate(378.861328 0)"/>
     <use xlink:href="#DejaVuSans-78" transform="translate(440.140625 0)"/>
     <use xlink:href="#DejaVuSans-69" transform="translate(499.320312 0)"/>
     <use xlink:href="#DejaVuSans-6d" transform="translate(527.103516 0)"/>
     <use xlink:href="#DejaVuSans-69" transform="translate(624.515625 0)"/>
     <use xlink:href="#DejaVuSans-7a" transform="translate(652.298828 0)"/>
     <use xlink:href="#DejaVuSans-61" transform="translate(704.789062 0)"/>
     <use xlink:href="#DejaVuSans-74" transform="translate(766.068359 0)"/>
     <use xlink:href="#DejaVuSans-69" transform="translate(805.277344 0)"/>
     <use xlink:href="#DejaVuSans-6f" transform="translate(833.060547 0)"/>
     <use xlink:href="#DejaVuSans-6e" transform="translate(894.242188 0)"/>
     <use xlink:href="#DejaVuSans-20" transform="translate(957.621094 0)"/>
     <use xlink:href="#DejaVuSans-61" transform="translate(989.408203 0)"/>
     <use xlink:href="#DejaVuSans-74" transform="translate(1050.6875 0)"/>
     <use xlink:href="#DejaVuSans-20" transform="translate(1089.896484 0)"/>
     <use xlink:href="#DejaVuSans-4d" transform="translate(1121.683594 0)"/>
     <use xlink:href="#DejaVuSans-43" transform="translate(1207.962891 0)"/>
     <use xlink:href="#DejaVuSans-20" transform="translate(1277.787109 0)"/>
     <use xlink:href="#DejaVuSans-3d" transform="translate(1309.574219 0)"/>
     <use xlink:href="#DejaVuSans-20" transform="translate(1393.363281 0)"/>
     <use xlink:href="#DejaVuSans-4d" transform="translate(1425.150391 0)"/>
     <use xlink:href="#DejaVuSans-52" transform="translate(1511.429688 0)"/>
    </g>
   </g>
   <g id="PathCollection_1">
    <defs>
     <path id="m8dd95ca808" d="M 0 5 
C 1.326016 5 2.597899 4.473168 3.535534 3.535534 
C 4.473168 2.597899 5 1.326016 5 0 
C 5 -1.326016 4.473168 -2.597899 3.535534 -3.535534 
C 2.597899 -4.473168 1.326016 -5 0 -5 
C -1.326016 -5 -2.597899 -4.473168 -3.535534 -3.535534 
C -4.473168 -2.597899 -5 -1.326016 -5 0 
C -5 1.326016 -4.473168 2.597899 -3.535534 3.535534 
C -2.597899 4.473168 -1.326016 5 0 5 
z
" style="stroke: #ff0000"/>
    </defs>
    <g clip-path="url(#p66bcb286cb)">
     <use xlink:href="#m8dd95ca808" x="263.748208" y="215.948" style="fill: #ff0000; stroke: #ff0000"/>
    </g>
   </g>
   <g id="legend_1">
    <g id="patch_8">
     <path d="M 43.892862 108.5685 
L 134.670987 108.5685 
Q 136.670987 108.5685 136.670987 106.5685 
L 136.670987 48.856 
Q 136.670987 46.856 134.670987 46.856 
L 43.892862 46.856 
Q 41.892862 46.856 41.892862 48.856 
L 41.892862 106.5685 
Q 41.892862 108.5685 43.892862 108.5685 
z
" style="fill: #ffffff; opacity: 0.8; stroke: #cccccc; stroke-linejoin: miter"/>
    </g>
    <g id="line2d_30">
     <path d="M 45.892862 54.954437 
L 55.892862 54.954437 
L 65.892862 54.954437 
" style="fill: none; stroke: #000000; stroke-width: 2; stroke-linecap: square"/>
    </g>
    <g id="text_18">
     <!-- MC -->
     <g transform="translate(73.892862 58.454437) scale(0.1 -0.1)">
      <use xlink:href="#DejaVuSans-4d"/>
      <use xlink:href="#DejaVuSans-43" transform="translate(86.279297 0)"/>
     </g>
    </g>
    <g id="line2d_31">
     <path d="M 45.892862 69.632563 
L 55.892862 69.632563 
L 65.892862 69.632563 
" style="fill: none; stroke: #0000ff; stroke-width: 2; stroke-linecap: square"/>
    </g>
    <g id="text_19">
     <!-- ATC -->
     <g transform="translate(73.892862 73.132563) scale(0.1 -0.1)">
      <defs>
       <path id="DejaVuSans-41" d="M 2188 4044 
L 1331 1722 
L 3047 1722 
L 2188 4044 
z
M 1831 4666 
L 2547 4666 
L 4325 0 
L 3669 0 
L 3244 1197 
L 1141 1197 
L 716 0 
L 50 0 
L 1831 4666 
z
" transform="scale(0.015625)"/>
       <path id="DejaVuSans-54" d="M -19 4666 
L 3928 4666 
L 3928 4134 
L 2272 4134 
L 2272 0 
L 1638 0 
L 1638 4134 
L -19 4134 
L -19 4666 
z
" transform="scale(0.015625)"/>
      </defs>
      <use xlink:href="#DejaVuSans-41"/>
      <use xlink:href="#DejaVuSans-54" transform="translate(60.658203 0)"/>
      <use xlink:href="#DejaVuSans-43" transform="translate(115.867188 0)"/>
     </g>
    </g>
    <g id="line2d_32">
     <path d="M 45.892862 84.310687 
L 55.892862 84.310687 
L 65.892862 84.310687 
" style="fill: none; stroke: #ffa500; stroke-width: 2; stroke-linecap: square"/>
    </g>
    <g id="text_20">
     <!-- AVC -->
     <g transform="translate(73.892862 87.810687) scale(0.1 -0.1)">
      <defs>
       <path id="DejaVuSans-56" d="M 1831 0 
L 50 4666 
L 709 4666 
L 2188 738 
L 3669 4666 
L 4325 4666 
L 2547 0 
L 1831 0 
z
" transform="scale(0.015625)"/>
      </defs>
      <use xlink:href="#DejaVuSans-41"/>
      <use xlink:href="#DejaVuSans-56" transform="translate(62.033203 0)"/>
      <use xlink:href="#DejaVuSans-43" transform="translate(130.441406 0)"/>
     </g>
    </g>
    <g id="line2d_33">
     <path d="M 45.892862 98.988812 
L 55.892862 98.988812 
L 65.892862 98.988812 
" style="fill: none; stroke-dasharray: 7.4,3.2; stroke-dashoffset: 0; stroke: #008000; stroke-width: 2"/>
    </g>
    <g id="text_21">
     <!-- P = MR = D -->
     <g transform="translate(73.892862 102.488812) scale(0.1 -0.1)">
      <defs>
       <path id="DejaVuSans-44" d="M 1259 4147 
L 1259 519 
L 2022 519 
Q 2988 519 3436 956 
Q 3884 1394 3884 2338 
Q 3884 3275 3436 3711 
Q 2988 4147 2022 4147 
L 1259 4147 
z
M 628 4666 
L 1925 4666 
Q 3281 4666 3915 4102 
Q 4550 3538 4550 2338 
Q 4550 1131 3912 565 
Q 3275 0 1925 0 
L 628 0 
L 628 4666 
z
" transform="scale(0.015625)"/>
      </defs>
      <use xlink:href="#DejaVuSans-50"/>
      <use xlink:href="#DejaVuSans-20" transform="translate(60.302734 0)"/>
      <use xlink:href="#DejaVuSans-3d" transform="translate(92.089844 0)"/>
      <use xlink:href="#DejaVuSans-20" transform="translate(175.878906 0)"/>
      <use xlink:href="#DejaVuSans-4d" transform="translate(207.666016 0)"/>
      <use xlink:href="#DejaVuSans-52" transform="translate(293.945312 0)"/>
      <use xlink:href="#DejaVuSans-20" transform="translate(363.427734 0)"/>
      <use xlink:href="#DejaVuSans-3d" transform="translate(395.214844 0)"/>
      <use xlink:href="#DejaVuSans-20" transform="translate(479.003906 0)"/>
      <use xlink:href="#DejaVuSans-44" transform="translate(510.791016 0)"/>
     </g>
    </g>
   </g>
  </g>
  <g id="axes_2">
   <g id="patch_9">
    <path d="M 398.496576 390.04 
L 723.207429 390.04 
L 723.207429 41.856 
L 398.496576 41.856 
z
" style="fill: #ffffff"/>
   </g>
   <g id="matplotlib.axis_3">
    <g id="xtick_6">
     <g id="line2d_34">
      <path d="M 455.09755 390.04 
L 455.09755 41.856 
" clip-path="url(#p2c1fa7d5fb)" style="fill: none; stroke-dasharray: 2.96,1.28; stroke-dashoffset: 0; stroke: #b0b0b0; stroke-opacity: 0.6; stroke-width: 0.8"/>
     </g>
     <g id="line2d_35">
      <g>
       <use xlink:href="#m03c382880f" x="455.09755" y="390.04" style="stroke: #000000; stroke-width: 0.8"/>
      </g>
     </g>
     <g id="text_22">
      <!-- 20 -->
      <g transform="translate(448.73505 404.638438) scale(0.1 -0.1)">
       <use xlink:href="#DejaVuSans-32"/>
       <use xlink:href="#DejaVuSans-30" transform="translate(63.623047 0)"/>
      </g>
     </g>
    </g>
    <g id="xtick_7">
     <g id="line2d_36">
      <path d="M 514.677523 390.04 
L 514.677523 41.856 
" clip-path="url(#p2c1fa7d5fb)" style="fill: none; stroke-dasharray: 2.96,1.28; stroke-dashoffset: 0; stroke: #b0b0b0; stroke-opacity: 0.6; stroke-width: 0.8"/>
     </g>
     <g id="line2d_37">
      <g>
       <use xlink:href="#m03c382880f" x="514.677523" y="390.04" style="stroke: #000000; stroke-width: 0.8"/>
      </g>
     </g>
     <g id="text_23">
      <!-- 40 -->
      <g transform="translate(508.315023 404.638438) scale(0.1 -0.1)">
       <use xlink:href="#DejaVuSans-34"/>
       <use xlink:href="#DejaVuSans-30" transform="translate(63.623047 0)"/>
      </g>
     </g>
    </g>
    <g id="xtick_8">
     <g id="line2d_38">
      <path d="M 574.257496 390.04 
L 574.257496 41.856 
" clip-path="url(#p2c1fa7d5fb)" style="fill: none; stroke-dasharray: 2.96,1.28; stroke-dashoffset: 0; stroke: #b0b0b0; stroke-opacity: 0.6; stroke-width: 0.8"/>
     </g>
     <g id="line2d_39">
      <g>
       <use xlink:href="#m03c382880f" x="574.257496" y="390.04" style="stroke: #000000; stroke-width: 0.8"/>
      </g>
     </g>
     <g id="text_24">
      <!-- 60 -->
      <g transform="translate(567.894996 404.638438) scale(0.1 -0.1)">
       <use xlink:href="#DejaVuSans-36"/>
       <use xlink:href="#DejaVuSans-30" transform="translate(63.623047 0)"/>
      </g>
     </g>
    </g>
    <g id="xtick_9">
     <g id="line2d_40">
      <path d="M 633.837469 390.04 
L 633.837469 41.856 
" clip-path="url(#p2c1fa7d5fb)" style="fill: none; stroke-dasharray: 2.96,1.28; stroke-dashoffset: 0; stroke: #b0b0b0; stroke-opacity: 0.6; stroke-width: 0.8"/>
     </g>
     <g id="line2d_41">
      <g>
       <use xlink:href="#m03c382880f" x="633.837469" y="390.04" style="stroke: #000000; stroke-width: 0.8"/>
      </g>
     </g>
     <g id="text_25">
      <!-- 80 -->
      <g transform="translate(627.474969 404.638438) scale(0.1 -0.1)">
       <use xlink:href="#DejaVuSans-38"/>
       <use xlink:href="#DejaVuSans-30" transform="translate(63.623047 0)"/>
      </g>
     </g>
    </g>
    <g id="xtick_10">
     <g id="line2d_42">
      <path d="M 693.417442 390.04 
L 693.417442 41.856 
" clip-path="url(#p2c1fa7d5fb)" style="fill: none; stroke-dasharray: 2.96,1.28; stroke-dashoffset: 0; stroke: #b0b0b0; stroke-opacity: 0.6; stroke-width: 0.8"/>
     </g>
     <g id="line2d_43">
      <g>
       <use xlink:href="#m03c382880f" x="693.417442" y="390.04" style="stroke: #000000; stroke-width: 0.8"/>
      </g>
     </g>
     <g id="text_26">
      <!-- 100 -->
      <g transform="translate(683.873692 404.638438) scale(0.1 -0.1)">
       <use xlink:href="#DejaVuSans-31"/>
       <use xlink:href="#DejaVuSans-30" transform="translate(63.623047 0)"/>
       <use xlink:href="#DejaVuSans-30" transform="translate(127.246094 0)"/>
      </g>
     </g>
    </g>
    <g id="text_27">
     <!-- Quantity (Q) -->
     <g transform="translate(529.81919 418.316562) scale(0.1 -0.1)">
      <use xlink:href="#DejaVuSans-51"/>
      <use xlink:href="#DejaVuSans-75" transform="translate(78.710938 0)"/>
      <use xlink:href="#DejaVuSans-61" transform="translate(142.089844 0)"/>
      <use xlink:href="#DejaVuSans-6e" transform="translate(203.369141 0)"/>
      <use xlink:href="#DejaVuSans-74" transform="translate(266.748047 0)"/>
      <use xlink:href="#DejaVuSans-69" transform="translate(305.957031 0)"/>
      <use xlink:href="#DejaVuSans-74" transform="translate(333.740234 0)"/>
      <use xlink:href="#DejaVuSans-79" transform="translate(372.949219 0)"/>
      <use xlink:href="#DejaVuSans-20" transform="translate(432.128906 0)"/>
      <use xlink:href="#DejaVuSans-28" transform="translate(463.916016 0)"/>
      <use xlink:href="#DejaVuSans-51" transform="translate(502.929688 0)"/>
      <use xlink:href="#DejaVuSans-29" transform="translate(581.640625 0)"/>
     </g>
    </g>
   </g>
   <g id="matplotlib.axis_4">
    <g id="ytick_8">
     <g id="line2d_44">
      <path d="M 398.496576 390.04 
L 723.207429 390.04 
" clip-path="url(#p2c1fa7d5fb)" style="fill: none; stroke-dasharray: 2.96,1.28; stroke-dashoffset: 0; stroke: #b0b0b0; stroke-opacity: 0.6; stroke-width: 0.8"/>
     </g>
     <g id="line2d_45">
      <g>
       <use xlink:href="#mbf2bc53e8b" x="398.496576" y="390.04" style="stroke: #000000; stroke-width: 0.8"/>
      </g>
     </g>
     <g id="text_28">
      <!-- 0 -->
      <g transform="translate(385.134076 393.839219) scale(0.1 -0.1)">
       <use xlink:href="#DejaVuSans-30"/>
      </g>
     </g>
    </g>
    <g id="ytick_9">
     <g id="line2d_46">
      <path d="M 398.496576 332.009333 
L 723.207429 332.009333 
" clip-path="url(#p2c1fa7d5fb)" style="fill: none; stroke-dasharray: 2.96,1.28; stroke-dashoffset: 0; stroke: #b0b0b0; stroke-opacity: 0.6; stroke-width: 0.8"/>
     </g>
     <g id="line2d_47">
      <g>
       <use xlink:href="#mbf2bc53e8b" x="398.496576" y="332.009333" style="stroke: #000000; stroke-width: 0.8"/>
      </g>
     </g>
     <g id="text_29">
      <!-- 20 -->
      <g transform="translate(378.771576 335.808552) scale(0.1 -0.1)">
       <use xlink:href="#DejaVuSans-32"/>
       <use xlink:href="#DejaVuSans-30" transform="translate(63.623047 0)"/>
      </g>
     </g>
    </g>
    <g id="ytick_10">
     <g id="line2d_48">
      <path d="M 398.496576 273.978667 
L 723.207429 273.978667 
" clip-path="url(#p2c1fa7d5fb)" style="fill: none; stroke-dasharray: 2.96,1.28; stroke-dashoffset: 0; stroke: #b0b0b0; stroke-opacity: 0.6; stroke-width: 0.8"/>
     </g>
     <g id="line2d_49">
      <g>
       <use xlink:href="#mbf2bc53e8b" x="398.496576" y="273.978667" style="stroke: #000000; stroke-width: 0.8"/>
      </g>
     </g>
     <g id="text_30">
      <!-- 40 -->
      <g transform="translate(378.771576 277.777885) scale(0.1 -0.1)">
       <use xlink:href="#DejaVuSans-34"/>
       <use xlink:href="#DejaVuSans-30" transform="translate(63.623047 0)"/>
      </g>
     </g>
    </g>
    <g id="ytick_11">
     <g id="line2d_50">
      <path d="M 398.496576 215.948 
L 723.207429 215.948 
" clip-path="url(#p2c1fa7d5fb)" style="fill: none; stroke-dasharray: 2.96,1.28; stroke-dashoffset: 0; stroke: #b0b0b0; stroke-opacity: 0.6; stroke-width: 0.8"/>
     </g>
     <g id="line2d_51">
      <g>
       <use xlink:href="#mbf2bc53e8b" x="398.496576" y="215.948" style="stroke: #000000; stroke-width: 0.8"/>
      </g>
     </g>
     <g id="text_31">
      <!-- 60 -->
      <g transform="translate(378.771576 219.747219) scale(0.1 -0.1)">
       <use xlink:href="#DejaVuSans-36"/>
       <use xlink:href="#DejaVuSans-30" transform="translate(63.623047 0)"/>
      </g>
     </g>
    </g>
    <g id="ytick_12">
     <g id="line2d_52">
      <path d="M 398.496576 157.917333 
L 723.207429 157.917333 
" clip-path="url(#p2c1fa7d5fb)" style="fill: none; stroke-dasharray: 2.96,1.28; stroke-dashoffset: 0; stroke: #b0b0b0; stroke-opacity: 0.6; stroke-width: 0.8"/>
     </g>
     <g id="line2d_53">
      <g>
       <use xlink:href="#mbf2bc53e8b" x="398.496576" y="157.917333" style="stroke: #000000; stroke-width: 0.8"/>
      </g>
     </g>
     <g id="text_32">
      <!-- 80 -->
      <g transform="translate(378.771576 161.716552) scale(0.1 -0.1)">
       <use xlink:href="#DejaVuSans-38"/>
       <use xlink:href="#DejaVuSans-30" transform="translate(63.623047 0)"/>
      </g>
     </g>
    </g>
    <g id="ytick_13">
     <g id="line2d_54">
      <path d="M 398.496576 99.886667 
L 723.207429 99.886667 
" clip-path="url(#p2c1fa7d5fb)" style="fill: none; stroke-dasharray: 2.96,1.28; stroke-dashoffset: 0; stroke: #b0b0b0; stroke-opacity: 0.6; stroke-width: 0.8"/>
     </g>
     <g id="line2d_55">
      <g>
       <use xlink:href="#mbf2bc53e8b" x="398.496576" y="99.886667" style="stroke: #000000; stroke-width: 0.8"/>
      </g>
     </g>
     <g id="text_33">
      <!-- 100 -->
      <g transform="translate(372.409076 103.685885) scale(0.1 -0.1)">
       <use xlink:href="#DejaVuSans-31"/>
       <use xlink:href="#DejaVuSans-30" transform="translate(63.623047 0)"/>
       <use xlink:href="#DejaVuSans-30" transform="translate(127.246094 0)"/>
      </g>
     </g>
    </g>
    <g id="ytick_14">
     <g id="line2d_56">
      <path d="M 398.496576 41.856 
L 723.207429 41.856 
" clip-path="url(#p2c1fa7d5fb)" style="fill: none; stroke-dasharray: 2.96,1.28; stroke-dashoffset: 0; stroke: #b0b0b0; stroke-opacity: 0.6; stroke-width: 0.8"/>
     </g>
     <g id="line2d_57">
      <g>
       <use xlink:href="#mbf2bc53e8b" x="398.496576" y="41.856" style="stroke: #000000; stroke-width: 0.8"/>
      </g>
     </g>
     <g id="text_34">
      <!-- 120 -->
      <g transform="translate(372.409076 45.655219) scale(0.1 -0.1)">
       <use xlink:href="#DejaVuSans-31"/>
       <use xlink:href="#DejaVuSans-32" transform="translate(63.623047 0)"/>
       <use xlink:href="#DejaVuSans-30" transform="translate(127.246094 0)"/>
      </g>
     </g>
    </g>
    <g id="text_35">
     <!-- Cost / Price -->
     <g transform="translate(366.329389 244.123781) rotate(-90) scale(0.1 -0.1)">
      <use xlink:href="#DejaVuSans-43"/>
      <use xlink:href="#DejaVuSans-6f" transform="translate(69.824219 0)"/>
      <use xlink:href="#DejaVuSans-73" transform="translate(131.005859 0)"/>
      <use xlink:href="#DejaVuSans-74" transform="translate(183.105469 0)"/>
      <use xlink:href="#DejaVuSans-20" transform="translate(222.314453 0)"/>
      <use xlink:href="#DejaVuSans-2f" transform="translate(254.101562 0)"/>
      <use xlink:href="#DejaVuSans-20" transform="translate(287.792969 0)"/>
      <use xlink:href="#DejaVuSans-50" transform="translate(319.580078 0)"/>
      <use xlink:href="#DejaVuSans-72" transform="translate(378.132812 0)"/>
      <use xlink:href="#DejaVuSans-69" transform="translate(419.246094 0)"/>
      <use xlink:href="#DejaVuSans-63" transform="translate(447.029297 0)"/>
      <use xlink:href="#DejaVuSans-65" transform="translate(502.009766 0)"/>
     </g>
    </g>
   </g>
   <g id="line2d_58">
    <path d="M 398.496576 111.318708 
L 403.051638 128.125736 
L 407.6067 144.118704 
L 412.161762 159.297611 
L 416.716824 173.662458 
L 421.271886 187.213243 
L 425.176225 198.180276 
L 429.080564 208.549224 
L 432.984903 218.320086 
L 436.889242 227.492863 
L 440.793581 236.067555 
L 444.69792 244.044161 
L 447.951536 250.234462 
L 451.205151 256.009426 
L 454.458767 261.369053 
L 457.712383 266.313342 
L 460.965999 270.842295 
L 464.219614 274.95591 
L 467.47323 278.654189 
L 470.076123 281.313769 
L 472.679015 283.707533 
L 475.281908 285.835481 
L 477.884801 287.697614 
L 480.487693 289.293931 
L 483.090586 290.624432 
L 485.693478 291.689118 
L 488.296371 292.487988 
L 490.899264 293.021042 
L 493.502156 293.28828 
L 496.105049 293.289703 
L 498.707941 293.02531 
L 501.310834 292.495101 
L 503.913727 291.699076 
L 506.516619 290.637236 
L 509.119512 289.309579 
L 511.722404 287.716108 
L 514.325297 285.85682 
L 516.92819 283.731716 
L 519.531082 281.340797 
L 522.133975 278.684063 
L 524.736867 275.761512 
L 527.990483 271.73452 
L 531.244099 267.292192 
L 534.497715 262.434526 
L 537.751331 257.161523 
L 541.004946 251.473183 
L 544.258562 245.369506 
L 547.512178 238.850491 
L 551.416517 230.479429 
L 555.320856 221.510282 
L 559.225195 211.943049 
L 563.129533 201.777731 
L 567.033872 191.014327 
L 570.938211 179.652838 
L 575.493273 165.641854 
L 580.048335 150.816809 
L 584.603397 135.177703 
L 589.158459 118.724537 
L 593.713522 101.45731 
L 598.268584 83.376022 
L 603.474369 61.714884 
L 608.680154 38.990483 
L 613.885939 15.202819 
L 617.304889 -1 
L 617.304889 -1 
" clip-path="url(#p2c1fa7d5fb)" style="fill: none; stroke: #000000; stroke-width: 2; stroke-linecap: square"/>
   </g>
   <g id="line2d_59">
    <path d="M 398.496576 105.631703 
L 404.353085 116.587686 
L 410.209593 127.095105 
L 416.066101 137.153959 
L 421.92261 146.76425 
L 427.779118 155.925977 
L 433.635626 164.639139 
L 438.841412 172.007601 
L 444.047197 179.021641 
L 449.252982 185.68126 
L 454.458767 191.986458 
L 459.664552 197.937235 
L 464.870338 203.533592 
L 470.076123 208.775527 
L 474.631185 213.071484 
L 479.186247 217.096088 
L 483.741309 220.849338 
L 488.296371 224.331235 
L 492.851433 227.541778 
L 497.406495 230.480967 
L 501.961557 233.148803 
L 506.516619 235.545286 
L 511.071681 237.670414 
L 515.626743 239.524189 
L 520.181805 241.106611 
L 524.736867 242.417679 
L 528.641206 243.325477 
L 532.545545 244.033912 
L 536.449884 244.542986 
L 540.354223 244.852698 
L 544.258562 244.963048 
L 548.162901 244.874036 
L 552.06724 244.585663 
L 555.971579 244.097927 
L 559.875918 243.41083 
L 563.780257 242.524371 
L 567.684595 241.438551 
L 571.588934 240.153368 
L 576.143996 238.402017 
L 580.699058 236.379313 
L 585.254121 234.085255 
L 589.809183 231.519843 
L 594.364245 228.683078 
L 598.919307 225.57496 
L 603.474369 222.195487 
L 608.029431 218.544662 
L 612.584493 214.622482 
L 617.139555 210.428949 
L 621.694617 205.964063 
L 626.900402 200.529066 
L 632.106187 194.739648 
L 637.311973 188.595809 
L 642.517758 182.097549 
L 647.723543 175.244868 
L 652.929328 168.037765 
L 658.135113 160.476242 
L 663.991622 151.545885 
L 669.84813 142.166964 
L 675.704639 132.339478 
L 681.561147 122.063429 
L 687.417655 111.338815 
L 693.274164 100.165638 
L 699.130672 88.543896 
L 705.637903 75.104756 
L 712.145135 61.111834 
L 718.652367 46.565128 
L 723.207429 36.052933 
L 723.207429 36.052933 
" clip-path="url(#p2c1fa7d5fb)" style="fill: none; stroke: #0000ff; stroke-width: 2; stroke-linecap: square"/>
   </g>
   <g id="line2d_60">
    <path d="M 398.496576 244.963333 
L 723.207429 244.963333 
L 723.207429 244.963333 
" clip-path="url(#p2c1fa7d5fb)" style="fill: none; stroke-dasharray: 7.4,3.2; stroke-dashoffset: 0; stroke: #008000; stroke-width: 2"/>
   </g>
   <g id="patch_10">
    <path d="M 398.496576 390.04 
L 398.496576 41.856 
" style="fill: none; stroke: #000000; stroke-width: 0.8; stroke-linejoin: miter; stroke-linecap: square"/>
   </g>
   <g id="patch_11">
    <path d="M 723.207429 390.04 
L 723.207429 41.856 
" style="fill: none; stroke: #000000; stroke-width: 0.8; stroke-linejoin: miter; stroke-linecap: square"/>
   </g>
   <g id="patch_12">
    <path d="M 398.496576 390.04 
L 723.207429 390.04 
" style="fill: none; stroke: #000000; stroke-width: 0.8; stroke-linejoin: miter; stroke-linecap: square"/>
   </g>
   <g id="patch_13">
    <path d="M 398.496576 41.856 
L 723.207429 41.856 
" style="fill: none; stroke: #000000; stroke-width: 0.8; stroke-linejoin: miter; stroke-linecap: square"/>
   </g>
   <g id="text_36">
    <!-- Long-Run Equilibrium -->
    <g style="fill: #ff0000" transform="translate(547.237561 260.287356) scale(0.1 -0.1)">
     <defs>
      <path id="DejaVuSans-4c" d="M 628 4666 
L 1259 4666 
L 1259 531 
L 3531 531 
L 3531 0 
L 628 0 
L 628 4666 
z
" transform="scale(0.015625)"/>
      <path id="DejaVuSans-67" d="M 2906 1791 
Q 2906 2416 2648 2759 
Q 2391 3103 1925 3103 
Q 1463 3103 1205 2759 
Q 947 2416 947 1791 
Q 947 1169 1205 825 
Q 1463 481 1925 481 
Q 2391 481 2648 825 
Q 2906 1169 2906 1791 
z
M 3481 434 
Q 3481 -459 3084 -895 
Q 2688 -1331 1869 -1331 
Q 1566 -1331 1297 -1286 
Q 1028 -1241 775 -1147 
L 775 -588 
Q 1028 -725 1275 -790 
Q 1522 -856 1778 -856 
Q 2344 -856 2625 -561 
Q 2906 -266 2906 331 
L 2906 616 
Q 2728 306 2450 153 
Q 2172 0 1784 0 
Q 1141 0 747 490 
Q 353 981 353 1791 
Q 353 2603 747 3093 
Q 1141 3584 1784 3584 
Q 2172 3584 2450 3431 
Q 2728 3278 2906 2969 
L 2906 3500 
L 3481 3500 
L 3481 434 
z
" transform="scale(0.015625)"/>
      <path id="DejaVuSans-45" d="M 628 4666 
L 3578 4666 
L 3578 4134 
L 1259 4134 
L 1259 2753 
L 3481 2753 
L 3481 2222 
L 1259 2222 
L 1259 531 
L 3634 531 
L 3634 0 
L 628 0 
L 628 4666 
z
" transform="scale(0.015625)"/>
      <path id="DejaVuSans-71" d="M 947 1747 
Q 947 1113 1208 752 
Q 1469 391 1925 391 
Q 2381 391 2643 752 
Q 2906 1113 2906 1747 
Q 2906 2381 2643 2742 
Q 2381 3103 1925 3103 
Q 1469 3103 1208 2742 
Q 947 2381 947 1747 
z
M 2906 525 
Q 2725 213 2448 61 
Q 2172 -91 1784 -91 
Q 1150 -91 751 415 
Q 353 922 353 1747 
Q 353 2572 751 3078 
Q 1150 3584 1784 3584 
Q 2172 3584 2448 3432 
Q 2725 3281 2906 2969 
L 2906 3500 
L 3481 3500 
L 3481 -1331 
L 2906 -1331 
L 2906 525 
z
" transform="scale(0.015625)"/>
      <path id="DejaVuSans-6c" d="M 603 4863 
L 1178 4863 
L 1178 0 
L 603 0 
L 603 4863 
z
" transform="scale(0.015625)"/>
      <path id="DejaVuSans-62" d="M 3116 1747 
Q 3116 2381 2855 2742 
Q 2594 3103 2138 3103 
Q 1681 3103 1420 2742 
Q 1159 2381 1159 1747 
Q 1159 1113 1420 752 
Q 1681 391 2138 391 
Q 2594 391 2855 752 
Q 3116 1113 3116 1747 
z
M 1159 2969 
Q 1341 3281 1617 3432 
Q 1894 3584 2278 3584 
Q 2916 3584 3314 3078 
Q 3713 2572 3713 1747 
Q 3713 922 3314 415 
Q 2916 -91 2278 -91 
Q 1894 -91 1617 61 
Q 1341 213 1159 525 
L 1159 0 
L 581 0 
L 581 4863 
L 1159 4863 
L 1159 2969 
z
" transform="scale(0.015625)"/>
     </defs>
     <use xlink:href="#DejaVuSans-4c"/>
     <use xlink:href="#DejaVuSans-6f" transform="translate(53.962891 0)"/>
     <use xlink:href="#DejaVuSans-6e" transform="translate(115.144531 0)"/>
     <use xlink:href="#DejaVuSans-67" transform="translate(178.523438 0)"/>
     <use xlink:href="#DejaVuSans-2d" transform="translate(242 0)"/>
     <use xlink:href="#DejaVuSans-52" transform="translate(278.083984 0)"/>
     <use xlink:href="#DejaVuSans-75" transform="translate(343.066406 0)"/>
     <use xlink:href="#DejaVuSans-6e" transform="translate(406.445312 0)"/>
     <use xlink:href="#DejaVuSans-20" transform="translate(469.824219 0)"/>
     <use xlink:href="#DejaVuSans-45" transform="translate(501.611328 0)"/>
     <use xlink:href="#DejaVuSans-71" transform="translate(564.794922 0)"/>
     <use xlink:href="#DejaVuSans-75" transform="translate(628.271484 0)"/>
     <use xlink:href="#DejaVuSans-69" transform="translate(691.650391 0)"/>
     <use xlink:href="#DejaVuSans-6c" transform="translate(719.433594 0)"/>
     <use xlink:href="#DejaVuSans-69" transform="translate(747.216797 0)"/>
     <use xlink:href="#DejaVuSans-62" transform="translate(775 0)"/>
     <use xlink:href="#DejaVuSans-72" transform="translate(838.476562 0)"/>
     <use xlink:href="#DejaVuSans-69" transform="translate(879.589844 0)"/>
     <use xlink:href="#DejaVuSans-75" transform="translate(907.373047 0)"/>
     <use xlink:href="#DejaVuSans-6d" transform="translate(970.751953 0)"/>
    </g>
    <!-- P = MC = min(ATC) -->
    <g style="fill: #ff0000" transform="translate(547.237561 271.485169) scale(0.1 -0.1)">
     <use xlink:href="#DejaVuSans-50"/>
     <use xlink:href="#DejaVuSans-20" transform="translate(60.302734 0)"/>
     <use xlink:href="#DejaVuSans-3d" transform="translate(92.089844 0)"/>
     <use xlink:href="#DejaVuSans-20" transform="translate(175.878906 0)"/>
     <use xlink:href="#DejaVuSans-4d" transform="translate(207.666016 0)"/>
     <use xlink:href="#DejaVuSans-43" transform="translate(293.945312 0)"/>
     <use xlink:href="#DejaVuSans-20" transform="translate(363.769531 0)"/>
     <use xlink:href="#DejaVuSans-3d" transform="translate(395.556641 0)"/>
     <use xlink:href="#DejaVuSans-20" transform="translate(479.345703 0)"/>
     <use xlink:href="#DejaVuSans-6d" transform="translate(511.132812 0)"/>
     <use xlink:href="#DejaVuSans-69" transform="translate(608.544922 0)"/>
     <use xlink:href="#DejaVuSans-6e" transform="translate(636.328125 0)"/>
     <use xlink:href="#DejaVuSans-28" transform="translate(699.707031 0)"/>
     <use xlink:href="#DejaVuSans-41" transform="translate(738.720703 0)"/>
     <use xlink:href="#DejaVuSans-54" transform="translate(799.378906 0)"/>
     <use xlink:href="#DejaVuSans-43" transform="translate(854.587891 0)"/>
     <use xlink:href="#DejaVuSans-29" transform="translate(924.412109 0)"/>
    </g>
    <!-- Zero Economic Profit -->
    <g style="fill: #ff0000" transform="translate(547.237561 282.682981) scale(0.1 -0.1)">
     <defs>
      <path id="DejaVuSans-5a" d="M 359 4666 
L 4025 4666 
L 4025 4184 
L 1075 531 
L 4097 531 
L 4097 0 
L 288 0 
L 288 481 
L 3238 4134 
L 359 4134 
L 359 4666 
z
" transform="scale(0.015625)"/>
     </defs>
     <use xlink:href="#DejaVuSans-5a"/>
     <use xlink:href="#DejaVuSans-65" transform="translate(68.505859 0)"/>
     <use xlink:href="#DejaVuSans-72" transform="translate(130.029297 0)"/>
     <use xlink:href="#DejaVuSans-6f" transform="translate(168.892578 0)"/>
     <use xlink:href="#DejaVuSans-20" transform="translate(230.074219 0)"/>
     <use xlink:href="#DejaVuSans-45" transform="translate(261.861328 0)"/>
     <use xlink:href="#DejaVuSans-63" transform="translate(325.044922 0)"/>
     <use xlink:href="#DejaVuSans-6f" transform="translate(380.025391 0)"/>
     <use xlink:href="#DejaVuSans-6e" transform="translate(441.207031 0)"/>
     <use xlink:href="#DejaVuSans-6f" transform="translate(504.585938 0)"/>
     <use xlink:href="#DejaVuSans-6d" transform="translate(565.767578 0)"/>
     <use xlink:href="#DejaVuSans-69" transform="translate(663.179688 0)"/>
     <use xlink:href="#DejaVuSans-63" transform="translate(690.962891 0)"/>
     <use xlink:href="#DejaVuSans-20" transform="translate(745.943359 0)"/>
     <use xlink:href="#DejaVuSans-50" transform="translate(777.730469 0)"/>
     <use xlink:href="#DejaVuSans-72" transform="translate(836.283203 0)"/>
     <use xlink:href="#DejaVuSans-6f" transform="translate(875.146484 0)"/>
     <use xlink:href="#DejaVuSans-66" transform="translate(936.328125 0)"/>
     <use xlink:href="#DejaVuSans-69" transform="translate(971.533203 0)"/>
     <use xlink:href="#DejaVuSans-74" transform="translate(999.316406 0)"/>
    </g>
   </g>
   <g id="text_37">
    <!-- Perfect Competition - Long Run -->
    <g transform="translate(467.302627 22.418625) scale(0.12 -0.12)">
     <use xlink:href="#DejaVuSans-50"/>
     <use xlink:href="#DejaVuSans-65" transform="translate(56.677734 0)"/>
     <use xlink:href="#DejaVuSans-72" transform="translate(118.201172 0)"/>
     <use xlink:href="#DejaVuSans-66" transform="translate(159.314453 0)"/>
     <use xlink:href="#DejaVuSans-65" transform="translate(194.519531 0)"/>
     <use xlink:href="#DejaVuSans-63" transform="translate(256.042969 0)"/>
     <use xlink:href="#DejaVuSans-74" transform="translate(311.023438 0)"/>
     <use xlink:href="#DejaVuSans-20" transform="translate(350.232422 0)"/>
     <use xlink:href="#DejaVuSans-43" transform="translate(382.019531 0)"/>
     <use xlink:href="#DejaVuSans-6f" transform="translate(451.84375 0)"/>
     <use xlink:href="#DejaVuSans-6d" transform="translate(513.025391 0)"/>
     <use xlink:href="#DejaVuSans-70" transform="translate(610.4375 0)"/>
     <use xlink:href="#DejaVuSans-65" transform="translate(673.914062 0)"/>
     <use xlink:href="#DejaVuSans-74" transform="translate(735.4375 0)"/>
     <use xlink:href="#DejaVuSans-69" transform="translate(774.646484 0)"/>
     <use xlink:href="#DejaVuSans-74" transform="translate(802.429688 0)"/>
     <use xlink:href="#DejaVuSans-69" transform="translate(841.638672 0)"/>
     <use xlink:href="#DejaVuSans-6f" transform="translate(869.421875 0)"/>
     <use xlink:href="#DejaVuSans-6e" transform="translate(930.603516 0)"/>
     <use xlink:href="#DejaVuSans-20" transform="translate(993.982422 0)"/>
     <use xlink:href="#DejaVuSans-2d" transform="translate(1025.769531 0)"/>
     <use xlink:href="#DejaVuSans-20" transform="translate(1061.853516 0)"/>
     <use xlink:href="#DejaVuSans-4c" transform="translate(1093.640625 0)"/>
     <use xlink:href="#DejaVuSans-6f" transform="translate(1147.603516 0)"/>
     <use xlink:href="#DejaVuSans-6e" transform="translate(1208.785156 0)"/>
     <use xlink:href="#DejaVuSans-67" transform="translate(1272.164062 0)"/>
     <use xlink:href="#DejaVuSans-20" transform="translate(1335.640625 0)"/>
     <use xlink:href="#DejaVuSans-52" transform="translate(1367.427734 0)"/>
     <use xlink:href="#DejaVuSans-75" transform="translate(1432.410156 0)"/>
     <use xlink:href="#DejaVuSans-6e" transform="translate(1495.789062 0)"/>
    </g>
    <!-- Zero Economic Profit -->
    <g transform="translate(498.541065 35.856) scale(0.12 -0.12)">
     <use xlink:href="#DejaVuSans-5a"/>
     <use xlink:href="#DejaVuSans-65" transform="translate(68.505859 0)"/>
     <use xlink:href="#DejaVuSans-72" transform="translate(130.029297 0)"/>
     <use xlink:href="#DejaVuSans-6f" transform="translate(168.892578 0)"/>
     <use xlink:href="#DejaVuSans-20" transform="translate(230.074219 0)"/>
     <use xlink:href="#DejaVuSans-45" transform="translate(261.861328 0)"/>
     <use xlink:href="#DejaVuSans-63" transform="translate(325.044922 0)"/>
     <use xlink:href="#DejaVuSans-6f" transform="translate(380.025391 0)"/>
     <use xlink:href="#DejaVuSans-6e" transform="translate(441.207031 0)"/>
     <use xlink:href="#DejaVuSans-6f" transform="translate(504.585938 0)"/>
     <use xlink:href="#DejaVuSans-6d" transform="translate(565.767578 0)"/>
     <use xlink:href="#DejaVuSans-69" transform="translate(663.179688 0)"/>
     <use xlink:href="#DejaVuSans-63" transform="translate(690.962891 0)"/>
     <use xlink:href="#DejaVuSans-20" transform="translate(745.943359 0)"/>
     <use xlink:href="#DejaVuSans-50" transform="translate(777.730469 0)"/>
     <use xlink:href="#DejaVuSans-72" transform="translate(836.283203 0)"/>
     <use xlink:href="#DejaVuSans-6f" transform="translate(875.146484 0)"/>
     <use xlink:href="#DejaVuSans-66" transform="translate(936.328125 0)"/>
     <use xlink:href="#DejaVuSans-69" transform="translate(971.533203 0)"/>
     <use xlink:href="#DejaVuSans-74" transform="translate(999.316406 0)"/>
    </g>
   </g>
   <g id="PathCollection_2">
    <g clip-path="url(#p2c1fa7d5fb)">
     <use xlink:href="#m8dd95ca808" x="544.258562" y="244.963048" style="fill: #ff0000; stroke: #ff0000"/>
    </g>
   </g>
   <g id="legend_2">
    <g id="patch_14">
     <path d="M 405.496576 93.890375 
L 556.238764 93.890375 
Q 558.238764 93.890375 558.238764 91.890375 
L 558.238764 48.856 
Q 558.238764 46.856 556.238764 46.856 
L 405.496576 46.856 
Q 403.496576 46.856 403.496576 48.856 
L 403.496576 91.890375 
Q 403.496576 93.890375 405.496576 93.890375 
z
" style="fill: #ffffff; opacity: 0.8; stroke: #cccccc; stroke-linejoin: miter"/>
    </g>
    <g id="line2d_61">
     <path d="M 407.496576 54.954437 
L 417.496576 54.954437 
L 427.496576 54.954437 
" style="fill: none; stroke: #000000; stroke-width: 2; stroke-linecap: square"/>
    </g>
    <g id="text_38">
     <!-- MC -->
     <g transform="translate(435.496576 58.454437) scale(0.1 -0.1)">
      <use xlink:href="#DejaVuSans-4d"/>
      <use xlink:href="#DejaVuSans-43" transform="translate(86.279297 0)"/>
     </g>
    </g>
    <g id="line2d_62">
     <path d="M 407.496576 69.632562 
L 417.496576 69.632562 
L 427.496576 69.632562 
" style="fill: none; stroke: #0000ff; stroke-width: 2; stroke-linecap: square"/>
    </g>
    <g id="text_39">
     <!-- ATC -->
     <g transform="translate(435.496576 73.132562) scale(0.1 -0.1)">
      <use xlink:href="#DejaVuSans-41"/>
      <use xlink:href="#DejaVuSans-54" transform="translate(60.658203 0)"/>
      <use xlink:href="#DejaVuSans-43" transform="translate(115.867188 0)"/>
     </g>
    </g>
    <g id="line2d_63">
     <path d="M 407.496576 84.310687 
L 417.496576 84.310687 
L 427.496576 84.310687 
" style="fill: none; stroke-dasharray: 7.4,3.2; stroke-dashoffset: 0; stroke: #008000; stroke-width: 2"/>
    </g>
    <g id="text_40">
     <!-- P = MR = D = min(ATC) -->
     <g transform="translate(435.496576 87.810687) scale(0.1 -0.1)">
      <use xlink:href="#DejaVuSans-50"/>
      <use xlink:href="#DejaVuSans-20" transform="translate(60.302734 0)"/>
      <use xlink:href="#DejaVuSans-3d" transform="translate(92.089844 0)"/>
      <use xlink:href="#DejaVuSans-20" transform="translate(175.878906 0)"/>
      <use xlink:href="#DejaVuSans-4d" transform="translate(207.666016 0)"/>
      <use xlink:href="#DejaVuSans-52" transform="translate(293.945312 0)"/>
      <use xlink:href="#DejaVuSans-20" transform="translate(363.427734 0)"/>
      <use xlink:href="#DejaVuSans-3d" transform="translate(395.214844 0)"/>
      <use xlink:href="#DejaVuSans-20" transform="translate(479.003906 0)"/>
      <use xlink:href="#DejaVuSans-44" transform="translate(510.791016 0)"/>
      <use xlink:href="#DejaVuSans-20" transform="translate(587.792969 0)"/>
      <use xlink:href="#DejaVuSans-3d" transform="translate(619.580078 0)"/>
      <use xlink:href="#DejaVuSans-20" transform="translate(703.369141 0)"/>
      <use xlink:href="#DejaVuSans-6d" transform="translate(735.15625 0)"/>
      <use xlink:href="#DejaVuSans-69" transform="translate(832.568359 0)"/>
      <use xlink:href="#DejaVuSans-6e" transform="translate(860.351562 0)"/>
      <use xlink:href="#DejaVuSans-28" transform="translate(923.730469 0)"/>
      <use xlink:href="#DejaVuSans-41" transform="translate(962.744141 0)"/>
      <use xlink:href="#DejaVuSans-54" transform="translate(1023.402344 0)"/>
      <use xlink:href="#DejaVuSans-43" transform="translate(1078.611328 0)"/>
      <use xlink:href="#DejaVuSans-29" transform="translate(1148.435547 0)"/>
     </g>
    </g>
   </g>
  </g>
 </g>
 <defs>
  <clipPath id="p66bcb286cb">
   <rect x="36.892862" y="41.856" width="324.710852" height="348.184"/>
  </clipPath>
  <clipPath id="p2c1fa7d5fb">
   <rect x="398.496576" y="41.856" width="324.710852" height="348.184"/>
  </clipPath>
 </defs>
</svg>
