<?xml version="1.0" encoding="utf-8" standalone="no"?>
<!DOCTYPE svg PUBLIC "-//W3C//DTD SVG 1.1//EN"
  "http://www.w3.org/Graphics/SVG/1.1/DTD/svg11.dtd">
<svg xmlns:xlink="http://www.w3.org/1999/xlink" width="1008pt" height="502.08pt" viewBox="0 0 1008 502.08" xmlns="http://www.w3.org/2000/svg" version="1.1">
 <metadata>
  <rdf:RDF xmlns:dc="http://purl.org/dc/elements/1.1/" xmlns:cc="http://creativecommons.org/ns#" xmlns:rdf="http://www.w3.org/1999/02/22-rdf-syntax-ns#">
   <cc:Work>
    <dc:type rdf:resource="http://purl.org/dc/dcmitype/StillImage"/>
    <dc:date>2025-11-07T12:08:28.989300</dc:date>
    <dc:format>image/svg+xml</dc:format>
    <dc:creator>
     <cc:Agent>
      <dc:title>Matplotlib v3.10.0, https://matplotlib.org/</dc:title>
     </cc:Agent>
    </dc:creator>
   </cc:Work>
  </rdf:RDF>
 </metadata>
 <defs>
  <style type="text/css">*{stroke-linejoin: round; stroke-linecap: butt}</style>
 </defs>
 <g id="figure_1">
  <g id="patch_1">
   <path d="M 0 502.08 
L 1008 502.08 
L 1008 0 
L 0 0 
z
" style="fill: #ffffff"/>
  </g>
  <g id="axes_1">
   <g id="patch_2">
    <path d="M 126 446.8512 
L 481.090909 446.8512 
L 481.090909 60.2496 
L 126 60.2496 
z
" style="fill: #ffffff"/>
   </g>
   <g id="patch_3">
    <path d="M 119.424242 323.192145 
L 174.422087 323.192145 
L 174.422087 382.4176 
L 119.424242 382.4176 
z
" clip-path="url(#p693af38e14)" style="fill: #ff0000; opacity: 0.1; stroke: #ff0000; stroke-linejoin: miter"/>
   </g>
   <g id="matplotlib.axis_1">
    <g id="xtick_1">
     <g id="line2d_1">
      <path d="M 185.181818 446.8512 
L 185.181818 60.2496 
" clip-path="url(#p693af38e14)" style="fill: none; stroke-dasharray: 2.96,1.28; stroke-dashoffset: 0; stroke: #b0b0b0; stroke-opacity: 0.6; stroke-width: 0.8"/>
     </g>
     <g id="line2d_2">
      <defs>
       <path id="m5408f77ac2" d="M 0 0 
L 0 3.5 
" style="stroke: #000000; stroke-width: 0.8"/>
      </defs>
      <g>
       <use xlink:href="#m5408f77ac2" x="185.181818" y="446.8512" style="stroke: #000000; stroke-width: 0.8"/>
      </g>
     </g>
     <g id="text_1">
      <!-- 20 -->
      <g transform="translate(178.819318 461.449638) scale(0.1 -0.1)">
       <defs>
        <path id="DejaVuSans-32" d="M 1228 531 
L 3431 531 
L 3431 0 
L 469 0 
L 469 531 
Q 828 903 1448 1529 
Q 2069 2156 2228 2338 
Q 2531 2678 2651 2914 
Q 2772 3150 2772 3378 
Q 2772 3750 2511 3984 
Q 2250 4219 1831 4219 
Q 1534 4219 1204 4116 
Q 875 4013 500 3803 
L 500 4441 
Q 881 4594 1212 4672 
Q 1544 4750 1819 4750 
Q 2544 4750 2975 4387 
Q 3406 4025 3406 3419 
Q 3406 3131 3298 2873 
Q 3191 2616 2906 2266 
Q 2828 2175 2409 1742 
Q 1991 1309 1228 531 
z
" transform="scale(0.015625)"/>
        <path id="DejaVuSans-30" d="M 2034 4250 
Q 1547 4250 1301 3770 
Q 1056 3291 1056 2328 
Q 1056 1369 1301 889 
Q 1547 409 2034 409 
Q 2525 409 2770 889 
Q 3016 1369 3016 2328 
Q 3016 3291 2770 3770 
Q 2525 4250 2034 4250 
z
M 2034 4750 
Q 2819 4750 3233 4129 
Q 3647 3509 3647 2328 
Q 3647 1150 3233 529 
Q 2819 -91 2034 -91 
Q 1250 -91 836 529 
Q 422 1150 422 2328 
Q 422 3509 836 4129 
Q 1250 4750 2034 4750 
z
" transform="scale(0.015625)"/>
       </defs>
       <use xlink:href="#DejaVuSans-32"/>
       <use xlink:href="#DejaVuSans-30" transform="translate(63.623047 0)"/>
      </g>
     </g>
    </g>
    <g id="xtick_2">
     <g id="line2d_3">
      <path d="M 250.939394 446.8512 
L 250.939394 60.2496 
" clip-path="url(#p693af38e14)" style="fill: none; stroke-dasharray: 2.96,1.28; stroke-dashoffset: 0; stroke: #b0b0b0; stroke-opacity: 0.6; stroke-width: 0.8"/>
     </g>
     <g id="line2d_4">
      <g>
       <use xlink:href="#m5408f77ac2" x="250.939394" y="446.8512" style="stroke: #000000; stroke-width: 0.8"/>
      </g>
     </g>
     <g id="text_2">
      <!-- 40 -->
      <g transform="translate(244.576894 461.449638) scale(0.1 -0.1)">
       <defs>
        <path id="DejaVuSans-34" d="M 2419 4116 
L 825 1625 
L 2419 1625 
L 2419 4116 
z
M 2253 4666 
L 3047 4666 
L 3047 1625 
L 3713 1625 
L 3713 1100 
L 3047 1100 
L 3047 0 
L 2419 0 
L 2419 1100 
L 313 1100 
L 313 1709 
L 2253 4666 
z
" transform="scale(0.015625)"/>
       </defs>
       <use xlink:href="#DejaVuSans-34"/>
       <use xlink:href="#DejaVuSans-30" transform="translate(63.623047 0)"/>
      </g>
     </g>
    </g>
    <g id="xtick_3">
     <g id="line2d_5">
      <path d="M 316.69697 446.8512 
L 316.69697 60.2496 
" clip-path="url(#p693af38e14)" style="fill: none; stroke-dasharray: 2.96,1.28; stroke-dashoffset: 0; stroke: #b0b0b0; stroke-opacity: 0.6; stroke-width: 0.8"/>
     </g>
     <g id="line2d_6">
      <g>
       <use xlink:href="#m5408f77ac2" x="316.69697" y="446.8512" style="stroke: #000000; stroke-width: 0.8"/>
      </g>
     </g>
     <g id="text_3">
      <!-- 60 -->
      <g transform="translate(310.33447 461.449638) scale(0.1 -0.1)">
       <defs>
        <path id="DejaVuSans-36" d="M 2113 2584 
Q 1688 2584 1439 2293 
Q 1191 2003 1191 1497 
Q 1191 994 1439 701 
Q 1688 409 2113 409 
Q 2538 409 2786 701 
Q 3034 994 3034 1497 
Q 3034 2003 2786 2293 
Q 2538 2584 2113 2584 
z
M 3366 4563 
L 3366 3988 
Q 3128 4100 2886 4159 
Q 2644 4219 2406 4219 
Q 1781 4219 1451 3797 
Q 1122 3375 1075 2522 
Q 1259 2794 1537 2939 
Q 1816 3084 2150 3084 
Q 2853 3084 3261 2657 
Q 3669 2231 3669 1497 
Q 3669 778 3244 343 
Q 2819 -91 2113 -91 
Q 1303 -91 875 529 
Q 447 1150 447 2328 
Q 447 3434 972 4092 
Q 1497 4750 2381 4750 
Q 2619 4750 2861 4703 
Q 3103 4656 3366 4563 
z
" transform="scale(0.015625)"/>
       </defs>
       <use xlink:href="#DejaVuSans-36"/>
       <use xlink:href="#DejaVuSans-30" transform="translate(63.623047 0)"/>
      </g>
     </g>
    </g>
    <g id="xtick_4">
     <g id="line2d_7">
      <path d="M 382.454545 446.8512 
L 382.454545 60.2496 
" clip-path="url(#p693af38e14)" style="fill: none; stroke-dasharray: 2.96,1.28; stroke-dashoffset: 0; stroke: #b0b0b0; stroke-opacity: 0.6; stroke-width: 0.8"/>
     </g>
     <g id="line2d_8">
      <g>
       <use xlink:href="#m5408f77ac2" x="382.454545" y="446.8512" style="stroke: #000000; stroke-width: 0.8"/>
      </g>
     </g>
     <g id="text_4">
      <!-- 80 -->
      <g transform="translate(376.092045 461.449638) scale(0.1 -0.1)">
       <defs>
        <path id="DejaVuSans-38" d="M 2034 2216 
Q 1584 2216 1326 1975 
Q 1069 1734 1069 1313 
Q 1069 891 1326 650 
Q 1584 409 2034 409 
Q 2484 409 2743 651 
Q 3003 894 3003 1313 
Q 3003 1734 2745 1975 
Q 2488 2216 2034 2216 
z
M 1403 2484 
Q 997 2584 770 2862 
Q 544 3141 544 3541 
Q 544 4100 942 4425 
Q 1341 4750 2034 4750 
Q 2731 4750 3128 4425 
Q 3525 4100 3525 3541 
Q 3525 3141 3298 2862 
Q 3072 2584 2669 2484 
Q 3125 2378 3379 2068 
Q 3634 1759 3634 1313 
Q 3634 634 3220 271 
Q 2806 -91 2034 -91 
Q 1263 -91 848 271 
Q 434 634 434 1313 
Q 434 1759 690 2068 
Q 947 2378 1403 2484 
z
M 1172 3481 
Q 1172 3119 1398 2916 
Q 1625 2713 2034 2713 
Q 2441 2713 2670 2916 
Q 2900 3119 2900 3481 
Q 2900 3844 2670 4047 
Q 2441 4250 2034 4250 
Q 1625 4250 1398 4047 
Q 1172 3844 1172 3481 
z
" transform="scale(0.015625)"/>
       </defs>
       <use xlink:href="#DejaVuSans-38"/>
       <use xlink:href="#DejaVuSans-30" transform="translate(63.623047 0)"/>
      </g>
     </g>
    </g>
    <g id="xtick_5">
     <g id="line2d_9">
      <path d="M 448.212121 446.8512 
L 448.212121 60.2496 
" clip-path="url(#p693af38e14)" style="fill: none; stroke-dasharray: 2.96,1.28; stroke-dashoffset: 0; stroke: #b0b0b0; stroke-opacity: 0.6; stroke-width: 0.8"/>
     </g>
     <g id="line2d_10">
      <g>
       <use xlink:href="#m5408f77ac2" x="448.212121" y="446.8512" style="stroke: #000000; stroke-width: 0.8"/>
      </g>
     </g>
     <g id="text_5">
      <!-- 100 -->
      <g transform="translate(438.668371 461.449638) scale(0.1 -0.1)">
       <defs>
        <path id="DejaVuSans-31" d="M 794 531 
L 1825 531 
L 1825 4091 
L 703 3866 
L 703 4441 
L 1819 4666 
L 2450 4666 
L 2450 531 
L 3481 531 
L 3481 0 
L 794 0 
L 794 531 
z
" transform="scale(0.015625)"/>
       </defs>
       <use xlink:href="#DejaVuSans-31"/>
       <use xlink:href="#DejaVuSans-30" transform="translate(63.623047 0)"/>
       <use xlink:href="#DejaVuSans-30" transform="translate(127.246094 0)"/>
      </g>
     </g>
    </g>
    <g id="text_6">
     <!-- Quantity (Q) -->
     <g transform="translate(272.512642 475.127763) scale(0.1 -0.1)">
      <defs>
       <path id="DejaVuSans-51" d="M 2522 4238 
Q 1834 4238 1429 3725 
Q 1025 3213 1025 2328 
Q 1025 1447 1429 934 
Q 1834 422 2522 422 
Q 3209 422 3611 934 
Q 4013 1447 4013 2328 
Q 4013 3213 3611 3725 
Q 3209 4238 2522 4238 
z
M 3406 84 
L 4238 -825 
L 3475 -825 
L 2784 -78 
Q 2681 -84 2626 -87 
Q 2572 -91 2522 -91 
Q 1538 -91 948 567 
Q 359 1225 359 2328 
Q 359 3434 948 4092 
Q 1538 4750 2522 4750 
Q 3503 4750 4090 4092 
Q 4678 3434 4678 2328 
Q 4678 1516 4351 937 
Q 4025 359 3406 84 
z
" transform="scale(0.015625)"/>
       <path id="DejaVuSans-75" d="M 544 1381 
L 544 3500 
L 1119 3500 
L 1119 1403 
Q 1119 906 1312 657 
Q 1506 409 1894 409 
Q 2359 409 2629 706 
Q 2900 1003 2900 1516 
L 2900 3500 
L 3475 3500 
L 3475 0 
L 2900 0 
L 2900 538 
Q 2691 219 2414 64 
Q 2138 -91 1772 -91 
Q 1169 -91 856 284 
Q 544 659 544 1381 
z
M 1991 3584 
L 1991 3584 
z
" transform="scale(0.015625)"/>
       <path id="DejaVuSans-61" d="M 2194 1759 
Q 1497 1759 1228 1600 
Q 959 1441 959 1056 
Q 959 750 1161 570 
Q 1363 391 1709 391 
Q 2188 391 2477 730 
Q 2766 1069 2766 1631 
L 2766 1759 
L 2194 1759 
z
M 3341 1997 
L 3341 0 
L 2766 0 
L 2766 531 
Q 2569 213 2275 61 
Q 1981 -91 1556 -91 
Q 1019 -91 701 211 
Q 384 513 384 1019 
Q 384 1609 779 1909 
Q 1175 2209 1959 2209 
L 2766 2209 
L 2766 2266 
Q 2766 2663 2505 2880 
Q 2244 3097 1772 3097 
Q 1472 3097 1187 3025 
Q 903 2953 641 2809 
L 641 3341 
Q 956 3463 1253 3523 
Q 1550 3584 1831 3584 
Q 2591 3584 2966 3190 
Q 3341 2797 3341 1997 
z
" transform="scale(0.015625)"/>
       <path id="DejaVuSans-6e" d="M 3513 2113 
L 3513 0 
L 2938 0 
L 2938 2094 
Q 2938 2591 2744 2837 
Q 2550 3084 2163 3084 
Q 1697 3084 1428 2787 
Q 1159 2491 1159 1978 
L 1159 0 
L 581 0 
L 581 3500 
L 1159 3500 
L 1159 2956 
Q 1366 3272 1645 3428 
Q 1925 3584 2291 3584 
Q 2894 3584 3203 3211 
Q 3513 2838 3513 2113 
z
" transform="scale(0.015625)"/>
       <path id="DejaVuSans-74" d="M 1172 4494 
L 1172 3500 
L 2356 3500 
L 2356 3053 
L 1172 3053 
L 1172 1153 
Q 1172 725 1289 603 
Q 1406 481 1766 481 
L 2356 481 
L 2356 0 
L 1766 0 
Q 1100 0 847 248 
Q 594 497 594 1153 
L 594 3053 
L 172 3053 
L 172 3500 
L 594 3500 
L 594 4494 
L 1172 4494 
z
" transform="scale(0.015625)"/>
       <path id="DejaVuSans-69" d="M 603 3500 
L 1178 3500 
L 1178 0 
L 603 0 
L 603 3500 
z
M 603 4863 
L 1178 4863 
L 1178 4134 
L 603 4134 
L 603 4863 
z
" transform="scale(0.015625)"/>
       <path id="DejaVuSans-79" d="M 2059 -325 
Q 1816 -950 1584 -1140 
Q 1353 -1331 966 -1331 
L 506 -1331 
L 506 -850 
L 844 -850 
Q 1081 -850 1212 -737 
Q 1344 -625 1503 -206 
L 1606 56 
L 191 3500 
L 800 3500 
L 1894 763 
L 2988 3500 
L 3597 3500 
L 2059 -325 
z
" transform="scale(0.015625)"/>
       <path id="DejaVuSans-20" transform="scale(0.015625)"/>
       <path id="DejaVuSans-28" d="M 1984 4856 
Q 1566 4138 1362 3434 
Q 1159 2731 1159 2009 
Q 1159 1288 1364 580 
Q 1569 -128 1984 -844 
L 1484 -844 
Q 1016 -109 783 600 
Q 550 1309 550 2009 
Q 550 2706 781 3412 
Q 1013 4119 1484 4856 
L 1984 4856 
z
" transform="scale(0.015625)"/>
       <path id="DejaVuSans-29" d="M 513 4856 
L 1013 4856 
Q 1481 4119 1714 3412 
Q 1947 2706 1947 2009 
Q 1947 1309 1714 600 
Q 1481 -109 1013 -844 
L 513 -844 
Q 928 -128 1133 580 
Q 1338 1288 1338 2009 
Q 1338 2731 1133 3434 
Q 928 4138 513 4856 
z
" transform="scale(0.015625)"/>
      </defs>
      <use xlink:href="#DejaVuSans-51"/>
      <use xlink:href="#DejaVuSans-75" transform="translate(78.710938 0)"/>
      <use xlink:href="#DejaVuSans-61" transform="translate(142.089844 0)"/>
      <use xlink:href="#DejaVuSans-6e" transform="translate(203.369141 0)"/>
      <use xlink:href="#DejaVuSans-74" transform="translate(266.748047 0)"/>
      <use xlink:href="#DejaVuSans-69" transform="translate(305.957031 0)"/>
      <use xlink:href="#DejaVuSans-74" transform="translate(333.740234 0)"/>
      <use xlink:href="#DejaVuSans-79" transform="translate(372.949219 0)"/>
      <use xlink:href="#DejaVuSans-20" transform="translate(432.128906 0)"/>
      <use xlink:href="#DejaVuSans-28" transform="translate(463.916016 0)"/>
      <use xlink:href="#DejaVuSans-51" transform="translate(502.929688 0)"/>
      <use xlink:href="#DejaVuSans-29" transform="translate(581.640625 0)"/>
     </g>
    </g>
   </g>
   <g id="matplotlib.axis_2">
    <g id="ytick_1">
     <g id="line2d_11">
      <path d="M 126 446.8512 
L 481.090909 446.8512 
" clip-path="url(#p693af38e14)" style="fill: none; stroke-dasharray: 2.96,1.28; stroke-dashoffset: 0; stroke: #b0b0b0; stroke-opacity: 0.6; stroke-width: 0.8"/>
     </g>
     <g id="line2d_12">
      <defs>
       <path id="m6f2e966441" d="M 0 0 
L -3.5 0 
" style="stroke: #000000; stroke-width: 0.8"/>
      </defs>
      <g>
       <use xlink:href="#m6f2e966441" x="126" y="446.8512" style="stroke: #000000; stroke-width: 0.8"/>
      </g>
     </g>
     <g id="text_7">
      <!-- 0 -->
      <g transform="translate(112.6375 450.650419) scale(0.1 -0.1)">
       <use xlink:href="#DejaVuSans-30"/>
      </g>
     </g>
    </g>
    <g id="ytick_2">
     <g id="line2d_13">
      <path d="M 126 382.4176 
L 481.090909 382.4176 
" clip-path="url(#p693af38e14)" style="fill: none; stroke-dasharray: 2.96,1.28; stroke-dashoffset: 0; stroke: #b0b0b0; stroke-opacity: 0.6; stroke-width: 0.8"/>
     </g>
     <g id="line2d_14">
      <g>
       <use xlink:href="#m6f2e966441" x="126" y="382.4176" style="stroke: #000000; stroke-width: 0.8"/>
      </g>
     </g>
     <g id="text_8">
      <!-- 20 -->
      <g transform="translate(106.275 386.216819) scale(0.1 -0.1)">
       <use xlink:href="#DejaVuSans-32"/>
       <use xlink:href="#DejaVuSans-30" transform="translate(63.623047 0)"/>
      </g>
     </g>
    </g>
    <g id="ytick_3">
     <g id="line2d_15">
      <path d="M 126 317.984 
L 481.090909 317.984 
" clip-path="url(#p693af38e14)" style="fill: none; stroke-dasharray: 2.96,1.28; stroke-dashoffset: 0; stroke: #b0b0b0; stroke-opacity: 0.6; stroke-width: 0.8"/>
     </g>
     <g id="line2d_16">
      <g>
       <use xlink:href="#m6f2e966441" x="126" y="317.984" style="stroke: #000000; stroke-width: 0.8"/>
      </g>
     </g>
     <g id="text_9">
      <!-- 40 -->
      <g transform="translate(106.275 321.783219) scale(0.1 -0.1)">
       <use xlink:href="#DejaVuSans-34"/>
       <use xlink:href="#DejaVuSans-30" transform="translate(63.623047 0)"/>
      </g>
     </g>
    </g>
    <g id="ytick_4">
     <g id="line2d_17">
      <path d="M 126 253.5504 
L 481.090909 253.5504 
" clip-path="url(#p693af38e14)" style="fill: none; stroke-dasharray: 2.96,1.28; stroke-dashoffset: 0; stroke: #b0b0b0; stroke-opacity: 0.6; stroke-width: 0.8"/>
     </g>
     <g id="line2d_18">
      <g>
       <use xlink:href="#m6f2e966441" x="126" y="253.5504" style="stroke: #000000; stroke-width: 0.8"/>
      </g>
     </g>
     <g id="text_10">
      <!-- 60 -->
      <g transform="translate(106.275 257.349619) scale(0.1 -0.1)">
       <use xlink:href="#DejaVuSans-36"/>
       <use xlink:href="#DejaVuSans-30" transform="translate(63.623047 0)"/>
      </g>
     </g>
    </g>
    <g id="ytick_5">
     <g id="line2d_19">
      <path d="M 126 189.1168 
L 481.090909 189.1168 
" clip-path="url(#p693af38e14)" style="fill: none; stroke-dasharray: 2.96,1.28; stroke-dashoffset: 0; stroke: #b0b0b0; stroke-opacity: 0.6; stroke-width: 0.8"/>
     </g>
     <g id="line2d_20">
      <g>
       <use xlink:href="#m6f2e966441" x="126" y="189.1168" style="stroke: #000000; stroke-width: 0.8"/>
      </g>
     </g>
     <g id="text_11">
      <!-- 80 -->
      <g transform="translate(106.275 192.916019) scale(0.1 -0.1)">
       <use xlink:href="#DejaVuSans-38"/>
       <use xlink:href="#DejaVuSans-30" transform="translate(63.623047 0)"/>
      </g>
     </g>
    </g>
    <g id="ytick_6">
     <g id="line2d_21">
      <path d="M 126 124.6832 
L 481.090909 124.6832 
" clip-path="url(#p693af38e14)" style="fill: none; stroke-dasharray: 2.96,1.28; stroke-dashoffset: 0; stroke: #b0b0b0; stroke-opacity: 0.6; stroke-width: 0.8"/>
     </g>
     <g id="line2d_22">
      <g>
       <use xlink:href="#m6f2e966441" x="126" y="124.6832" style="stroke: #000000; stroke-width: 0.8"/>
      </g>
     </g>
     <g id="text_12">
      <!-- 100 -->
      <g transform="translate(99.9125 128.482419) scale(0.1 -0.1)">
       <use xlink:href="#DejaVuSans-31"/>
       <use xlink:href="#DejaVuSans-30" transform="translate(63.623047 0)"/>
       <use xlink:href="#DejaVuSans-30" transform="translate(127.246094 0)"/>
      </g>
     </g>
    </g>
    <g id="ytick_7">
     <g id="line2d_23">
      <path d="M 126 60.2496 
L 481.090909 60.2496 
" clip-path="url(#p693af38e14)" style="fill: none; stroke-dasharray: 2.96,1.28; stroke-dashoffset: 0; stroke: #b0b0b0; stroke-opacity: 0.6; stroke-width: 0.8"/>
     </g>
     <g id="line2d_24">
      <g>
       <use xlink:href="#m6f2e966441" x="126" y="60.2496" style="stroke: #000000; stroke-width: 0.8"/>
      </g>
     </g>
     <g id="text_13">
      <!-- 120 -->
      <g transform="translate(99.9125 64.048819) scale(0.1 -0.1)">
       <use xlink:href="#DejaVuSans-31"/>
       <use xlink:href="#DejaVuSans-32" transform="translate(63.623047 0)"/>
       <use xlink:href="#DejaVuSans-30" transform="translate(127.246094 0)"/>
      </g>
     </g>
    </g>
    <g id="text_14">
     <!-- Cost / Price -->
     <g transform="translate(93.832812 281.726181) rotate(-90) scale(0.1 -0.1)">
      <defs>
       <path id="DejaVuSans-43" d="M 4122 4306 
L 4122 3641 
Q 3803 3938 3442 4084 
Q 3081 4231 2675 4231 
Q 1875 4231 1450 3742 
Q 1025 3253 1025 2328 
Q 1025 1406 1450 917 
Q 1875 428 2675 428 
Q 3081 428 3442 575 
Q 3803 722 4122 1019 
L 4122 359 
Q 3791 134 3420 21 
Q 3050 -91 2638 -91 
Q 1578 -91 968 557 
Q 359 1206 359 2328 
Q 359 3453 968 4101 
Q 1578 4750 2638 4750 
Q 3056 4750 3426 4639 
Q 3797 4528 4122 4306 
z
" transform="scale(0.015625)"/>
       <path id="DejaVuSans-6f" d="M 1959 3097 
Q 1497 3097 1228 2736 
Q 959 2375 959 1747 
Q 959 1119 1226 758 
Q 1494 397 1959 397 
Q 2419 397 2687 759 
Q 2956 1122 2956 1747 
Q 2956 2369 2687 2733 
Q 2419 3097 1959 3097 
z
M 1959 3584 
Q 2709 3584 3137 3096 
Q 3566 2609 3566 1747 
Q 3566 888 3137 398 
Q 2709 -91 1959 -91 
Q 1206 -91 779 398 
Q 353 888 353 1747 
Q 353 2609 779 3096 
Q 1206 3584 1959 3584 
z
" transform="scale(0.015625)"/>
       <path id="DejaVuSans-73" d="M 2834 3397 
L 2834 2853 
Q 2591 2978 2328 3040 
Q 2066 3103 1784 3103 
Q 1356 3103 1142 2972 
Q 928 2841 928 2578 
Q 928 2378 1081 2264 
Q 1234 2150 1697 2047 
L 1894 2003 
Q 2506 1872 2764 1633 
Q 3022 1394 3022 966 
Q 3022 478 2636 193 
Q 2250 -91 1575 -91 
Q 1294 -91 989 -36 
Q 684 19 347 128 
L 347 722 
Q 666 556 975 473 
Q 1284 391 1588 391 
Q 1994 391 2212 530 
Q 2431 669 2431 922 
Q 2431 1156 2273 1281 
Q 2116 1406 1581 1522 
L 1381 1569 
Q 847 1681 609 1914 
Q 372 2147 372 2553 
Q 372 3047 722 3315 
Q 1072 3584 1716 3584 
Q 2034 3584 2315 3537 
Q 2597 3491 2834 3397 
z
" transform="scale(0.015625)"/>
       <path id="DejaVuSans-2f" d="M 1625 4666 
L 2156 4666 
L 531 -594 
L 0 -594 
L 1625 4666 
z
" transform="scale(0.015625)"/>
       <path id="DejaVuSans-50" d="M 1259 4147 
L 1259 2394 
L 2053 2394 
Q 2494 2394 2734 2622 
Q 2975 2850 2975 3272 
Q 2975 3691 2734 3919 
Q 2494 4147 2053 4147 
L 1259 4147 
z
M 628 4666 
L 2053 4666 
Q 2838 4666 3239 4311 
Q 3641 3956 3641 3272 
Q 3641 2581 3239 2228 
Q 2838 1875 2053 1875 
L 1259 1875 
L 1259 0 
L 628 0 
L 628 4666 
z
" transform="scale(0.015625)"/>
       <path id="DejaVuSans-72" d="M 2631 2963 
Q 2534 3019 2420 3045 
Q 2306 3072 2169 3072 
Q 1681 3072 1420 2755 
Q 1159 2438 1159 1844 
L 1159 0 
L 581 0 
L 581 3500 
L 1159 3500 
L 1159 2956 
Q 1341 3275 1631 3429 
Q 1922 3584 2338 3584 
Q 2397 3584 2469 3576 
Q 2541 3569 2628 3553 
L 2631 2963 
z
" transform="scale(0.015625)"/>
       <path id="DejaVuSans-63" d="M 3122 3366 
L 3122 2828 
Q 2878 2963 2633 3030 
Q 2388 3097 2138 3097 
Q 1578 3097 1268 2742 
Q 959 2388 959 1747 
Q 959 1106 1268 751 
Q 1578 397 2138 397 
Q 2388 397 2633 464 
Q 2878 531 3122 666 
L 3122 134 
Q 2881 22 2623 -34 
Q 2366 -91 2075 -91 
Q 1284 -91 818 406 
Q 353 903 353 1747 
Q 353 2603 823 3093 
Q 1294 3584 2113 3584 
Q 2378 3584 2631 3529 
Q 2884 3475 3122 3366 
z
" transform="scale(0.015625)"/>
       <path id="DejaVuSans-65" d="M 3597 1894 
L 3597 1613 
L 953 1613 
Q 991 1019 1311 708 
Q 1631 397 2203 397 
Q 2534 397 2845 478 
Q 3156 559 3463 722 
L 3463 178 
Q 3153 47 2828 -22 
Q 2503 -91 2169 -91 
Q 1331 -91 842 396 
Q 353 884 353 1716 
Q 353 2575 817 3079 
Q 1281 3584 2069 3584 
Q 2775 3584 3186 3129 
Q 3597 2675 3597 1894 
z
M 3022 2063 
Q 3016 2534 2758 2815 
Q 2500 3097 2075 3097 
Q 1594 3097 1305 2825 
Q 1016 2553 972 2059 
L 3022 2063 
z
" transform="scale(0.015625)"/>
      </defs>
      <use xlink:href="#DejaVuSans-43"/>
      <use xlink:href="#DejaVuSans-6f" transform="translate(69.824219 0)"/>
      <use xlink:href="#DejaVuSans-73" transform="translate(131.005859 0)"/>
      <use xlink:href="#DejaVuSans-74" transform="translate(183.105469 0)"/>
      <use xlink:href="#DejaVuSans-20" transform="translate(222.314453 0)"/>
      <use xlink:href="#DejaVuSans-2f" transform="translate(254.101562 0)"/>
      <use xlink:href="#DejaVuSans-20" transform="translate(287.792969 0)"/>
      <use xlink:href="#DejaVuSans-50" transform="translate(319.580078 0)"/>
      <use xlink:href="#DejaVuSans-72" transform="translate(378.132812 0)"/>
      <use xlink:href="#DejaVuSans-69" transform="translate(419.246094 0)"/>
      <use xlink:href="#DejaVuSans-63" transform="translate(447.029297 0)"/>
      <use xlink:href="#DejaVuSans-65" transform="translate(502.009766 0)"/>
     </g>
    </g>
   </g>
   <g id="line2d_25">
    <path d="M 122.712121 323.061368 
L 127.739479 330.525954 
L 132.766837 337.628988 
L 137.794194 344.370469 
L 142.821552 350.750398 
L 147.84891 356.768774 
L 152.876268 362.425597 
L 157.903625 367.720867 
L 162.930983 372.654585 
L 167.240147 376.595719 
L 171.549311 380.271223 
L 175.858475 383.681096 
L 180.167638 386.825339 
L 184.476802 389.703951 
L 188.785966 392.316933 
L 193.09513 394.664284 
L 197.404293 396.746004 
L 201.713457 398.562094 
L 206.022621 400.112554 
L 210.331785 401.397382 
L 214.640949 402.416581 
L 218.950112 403.170148 
L 223.259276 403.658085 
L 227.56844 403.880392 
L 231.877604 403.837068 
L 236.186767 403.528113 
L 240.495931 402.953528 
L 244.805095 402.113312 
L 249.114259 401.007466 
L 253.423423 399.635989 
L 257.732586 397.998882 
L 262.04175 396.096144 
L 266.350914 393.927775 
L 270.660078 391.493776 
L 274.969242 388.794146 
L 279.278405 385.828886 
L 283.587569 382.597995 
L 287.896733 379.101474 
L 292.205897 375.339322 
L 296.51506 371.311539 
L 300.824224 367.018126 
L 305.851582 361.673417 
L 310.87894 355.967155 
L 315.906297 349.89934 
L 320.933655 343.469972 
L 325.961013 336.679052 
L 330.988371 329.526579 
L 336.015728 322.012553 
L 341.043086 314.136975 
L 346.788638 304.693596 
L 352.53419 294.777986 
L 358.279741 284.390143 
L 364.025293 273.530068 
L 369.770845 262.197761 
L 375.516396 250.393221 
L 381.261948 238.11645 
L 387.725694 223.740617 
L 394.189439 208.767116 
L 400.653185 193.195946 
L 407.116931 177.027107 
L 413.580677 160.260599 
L 420.044422 142.896422 
L 426.508168 124.934577 
L 433.690107 104.276002 
L 440.872047 82.879564 
L 448.053987 60.745263 
L 455.235926 37.873099 
L 462.417866 14.263073 
L 466.945168 -1 
L 466.945168 -1 
" clip-path="url(#p693af38e14)" style="fill: none; stroke: #000000; stroke-width: 2; stroke-linecap: square"/>
   </g>
   <g id="line2d_26">
    <path d="M 124.367552 -1 
L 124.866703 30.221656 
L 125.584897 64.793499 
L 126.303091 92.255615 
L 127.021285 114.623508 
L 128.457673 148.933825 
L 129.894061 174.106978 
L 131.330449 193.445492 
L 132.766837 208.829767 
L 134.203225 221.40917 
L 135.639613 231.925815 
L 137.076 240.880264 
L 138.512388 248.622405 
L 139.948776 255.404185 
L 141.385164 261.411631 
L 143.539746 269.26879 
L 145.694328 276.037959 
L 147.84891 281.960254 
L 150.003492 287.208836 
L 152.158074 291.911274 
L 154.312656 296.163626 
L 157.185431 301.25827 
L 160.058207 305.813824 
L 162.930983 309.927333 
L 165.803759 313.671797 
L 168.676535 317.103186 
L 172.267505 321.017726 
L 175.858475 324.576417 
L 179.449444 327.829331 
L 183.040414 330.815233 
L 187.349578 334.088323 
L 191.658742 337.061689 
L 195.967906 339.76726 
L 200.277069 342.230158 
L 205.304427 344.823332 
L 210.331785 347.138623 
L 215.359143 349.196034 
L 220.3865 351.011584 
L 225.413858 352.598252 
L 230.441216 353.966666 
L 235.468574 355.125614 
L 240.495931 356.082423 
L 246.241483 356.936257 
L 251.987035 357.541787 
L 257.732586 357.905438 
L 263.478138 358.032608 
L 269.22369 357.927866 
L 274.969242 357.595108 
L 280.714793 357.037673 
L 286.460345 356.258443 
L 292.205897 355.259913 
L 297.951448 354.044261 
L 303.697 352.613389 
L 309.442552 350.968974 
L 315.188103 349.112491 
L 320.933655 347.04525 
L 327.397401 344.469127 
L 333.861147 341.629202 
L 340.324892 338.526771 
L 346.788638 335.162984 
L 353.252384 331.538864 
L 359.716129 327.655322 
L 366.179875 323.513176 
L 372.643621 319.113158 
L 379.107366 314.455929 
L 385.571112 309.542085 
L 392.034858 304.372166 
L 399.216797 298.32807 
L 406.398737 291.969044 
L 413.580677 285.295635 
L 420.762616 278.308339 
L 427.944556 271.007607 
L 435.126495 263.393848 
L 442.308435 255.467434 
L 449.490375 247.228705 
L 456.672314 238.677974 
L 464.572448 228.912145 
L 472.472582 218.769484 
L 480.372715 208.250309 
L 481.090909 207.27536 
L 481.090909 207.27536 
" clip-path="url(#p693af38e14)" style="fill: none; stroke: #0000ff; stroke-width: 2; stroke-linecap: square"/>
   </g>
   <g id="line2d_27">
    <path d="M 122.712121 320.529127 
L 129.894061 325.864529 
L 136.357807 330.403527 
L 142.821552 334.693496 
L 149.285298 338.734436 
L 155.749044 342.526348 
L 162.212789 346.069231 
L 168.676535 349.363086 
L 175.140281 352.407912 
L 181.604026 355.203709 
L 188.067772 357.750477 
L 194.531518 360.048217 
L 200.995263 362.096929 
L 207.459009 363.896611 
L 213.922755 365.447265 
L 220.3865 366.74889 
L 226.850246 367.801487 
L 233.313992 368.605055 
L 239.777737 369.159594 
L 246.241483 369.465105 
L 252.705229 369.521587 
L 259.168974 369.32904 
L 265.63272 368.887465 
L 272.096466 368.196861 
L 278.560211 367.257229 
L 285.023957 366.068567 
L 291.487703 364.630878 
L 297.951448 362.944159 
L 304.415194 361.008412 
L 310.87894 358.823636 
L 317.342685 356.389832 
L 323.806431 353.706998 
L 330.270177 350.775137 
L 336.733922 347.594246 
L 343.197668 344.164327 
L 349.661414 340.485379 
L 356.125159 336.557403 
L 362.588905 332.380398 
L 369.052651 327.954364 
L 375.516396 323.279302 
L 382.698336 317.792717 
L 389.880276 311.99869 
L 397.062215 305.89722 
L 404.244155 299.488307 
L 411.426095 292.771952 
L 418.608034 285.748153 
L 425.789974 278.416912 
L 432.971914 270.778229 
L 440.153853 262.832102 
L 447.335793 254.578532 
L 455.235926 245.14451 
L 463.13606 235.338481 
L 471.036194 225.160447 
L 478.936327 214.610407 
L 481.090909 211.66856 
L 481.090909 211.66856 
" clip-path="url(#p693af38e14)" style="fill: none; stroke: #ffa500; stroke-width: 2; stroke-linecap: square"/>
   </g>
   <g id="line2d_28">
    <path d="M 122.712121 382.4176 
L 481.090909 382.4176 
L 481.090909 382.4176 
" clip-path="url(#p693af38e14)" style="fill: none; stroke-dasharray: 7.4,3.2; stroke-dashoffset: 0; stroke: #008000; stroke-width: 2"/>
   </g>
   <g id="line2d_29">
    <path d="M 174.422087 446.8512 
L 174.422087 60.2496 
" clip-path="url(#p693af38e14)" style="fill: none; stroke-dasharray: 1.5,2.475; stroke-dashoffset: 0; stroke: #ff0000; stroke-opacity: 0.7; stroke-width: 1.5"/>
   </g>
   <g id="patch_4">
    <path d="M 126 446.8512 
L 126 60.2496 
" style="fill: none; stroke: #000000; stroke-width: 0.8; stroke-linejoin: miter; stroke-linecap: square"/>
   </g>
   <g id="patch_5">
    <path d="M 481.090909 446.8512 
L 481.090909 60.2496 
" style="fill: none; stroke: #000000; stroke-width: 0.8; stroke-linejoin: miter; stroke-linecap: square"/>
   </g>
   <g id="patch_6">
    <path d="M 126 446.8512 
L 481.090909 446.8512 
" style="fill: none; stroke: #000000; stroke-width: 0.8; stroke-linejoin: miter; stroke-linecap: square"/>
   </g>
   <g id="patch_7">
    <path d="M 126 60.2496 
L 481.090909 60.2496 
" style="fill: none; stroke: #000000; stroke-width: 0.8; stroke-linejoin: miter; stroke-linecap: square"/>
   </g>
   <g id="text_15">
    <!-- MC = MR -->
    <g style="fill: #ff0000" transform="translate(180.997844 419.544988) scale(0.1 -0.1)">
     <defs>
      <path id="DejaVuSans-4d" d="M 628 4666 
L 1569 4666 
L 2759 1491 
L 3956 4666 
L 4897 4666 
L 4897 0 
L 4281 0 
L 4281 4097 
L 3078 897 
L 2444 897 
L 1241 4097 
L 1241 0 
L 628 0 
L 628 4666 
z
" transform="scale(0.015625)"/>
      <path id="DejaVuSans-3d" d="M 678 2906 
L 4684 2906 
L 4684 2381 
L 678 2381 
L 678 2906 
z
M 678 1631 
L 4684 1631 
L 4684 1100 
L 678 1100 
L 678 1631 
z
" transform="scale(0.015625)"/>
      <path id="DejaVuSans-52" d="M 2841 2188 
Q 3044 2119 3236 1894 
Q 3428 1669 3622 1275 
L 4263 0 
L 3584 0 
L 2988 1197 
Q 2756 1666 2539 1819 
Q 2322 1972 1947 1972 
L 1259 1972 
L 1259 0 
L 628 0 
L 628 4666 
L 2053 4666 
Q 2853 4666 3247 4331 
Q 3641 3997 3641 3322 
Q 3641 2881 3436 2590 
Q 3231 2300 2841 2188 
z
M 1259 4147 
L 1259 2491 
L 2053 2491 
Q 2509 2491 2742 2702 
Q 2975 2913 2975 3322 
Q 2975 3731 2742 3939 
Q 2509 4147 2053 4147 
L 1259 4147 
z
" transform="scale(0.015625)"/>
     </defs>
     <use xlink:href="#DejaVuSans-4d"/>
     <use xlink:href="#DejaVuSans-43" transform="translate(86.279297 0)"/>
     <use xlink:href="#DejaVuSans-20" transform="translate(156.103516 0)"/>
     <use xlink:href="#DejaVuSans-3d" transform="translate(187.890625 0)"/>
     <use xlink:href="#DejaVuSans-20" transform="translate(271.679688 0)"/>
     <use xlink:href="#DejaVuSans-4d" transform="translate(303.466797 0)"/>
     <use xlink:href="#DejaVuSans-52" transform="translate(389.746094 0)"/>
    </g>
    <!-- Q* = 16.7 -->
    <g style="fill: #ff0000" transform="translate(180.997844 430.7428) scale(0.1 -0.1)">
     <defs>
      <path id="DejaVuSans-2a" d="M 3009 3897 
L 1888 3291 
L 3009 2681 
L 2828 2375 
L 1778 3009 
L 1778 1831 
L 1422 1831 
L 1422 3009 
L 372 2375 
L 191 2681 
L 1313 3291 
L 191 3897 
L 372 4206 
L 1422 3572 
L 1422 4750 
L 1778 4750 
L 1778 3572 
L 2828 4206 
L 3009 3897 
z
" transform="scale(0.015625)"/>
      <path id="DejaVuSans-2e" d="M 684 794 
L 1344 794 
L 1344 0 
L 684 0 
L 684 794 
z
" transform="scale(0.015625)"/>
      <path id="DejaVuSans-37" d="M 525 4666 
L 3525 4666 
L 3525 4397 
L 1831 0 
L 1172 0 
L 2766 4134 
L 525 4134 
L 525 4666 
z
" transform="scale(0.015625)"/>
     </defs>
     <use xlink:href="#DejaVuSans-51"/>
     <use xlink:href="#DejaVuSans-2a" transform="translate(78.710938 0)"/>
     <use xlink:href="#DejaVuSans-20" transform="translate(128.710938 0)"/>
     <use xlink:href="#DejaVuSans-3d" transform="translate(160.498047 0)"/>
     <use xlink:href="#DejaVuSans-20" transform="translate(244.287109 0)"/>
     <use xlink:href="#DejaVuSans-31" transform="translate(276.074219 0)"/>
     <use xlink:href="#DejaVuSans-36" transform="translate(339.697266 0)"/>
     <use xlink:href="#DejaVuSans-2e" transform="translate(403.320312 0)"/>
     <use xlink:href="#DejaVuSans-37" transform="translate(435.107422 0)"/>
    </g>
   </g>
   <g id="text_16">
    <!-- Perfect Competition - Short Run -->
    <g transform="translate(208.415455 40.812225) scale(0.12 -0.12)">
     <defs>
      <path id="DejaVuSans-66" d="M 2375 4863 
L 2375 4384 
L 1825 4384 
Q 1516 4384 1395 4259 
Q 1275 4134 1275 3809 
L 1275 3500 
L 2222 3500 
L 2222 3053 
L 1275 3053 
L 1275 0 
L 697 0 
L 697 3053 
L 147 3053 
L 147 3500 
L 697 3500 
L 697 3744 
Q 697 4328 969 4595 
Q 1241 4863 1831 4863 
L 2375 4863 
z
" transform="scale(0.015625)"/>
      <path id="DejaVuSans-6d" d="M 3328 2828 
Q 3544 3216 3844 3400 
Q 4144 3584 4550 3584 
Q 5097 3584 5394 3201 
Q 5691 2819 5691 2113 
L 5691 0 
L 5113 0 
L 5113 2094 
Q 5113 2597 4934 2840 
Q 4756 3084 4391 3084 
Q 3944 3084 3684 2787 
Q 3425 2491 3425 1978 
L 3425 0 
L 2847 0 
L 2847 2094 
Q 2847 2600 2669 2842 
Q 2491 3084 2119 3084 
Q 1678 3084 1418 2786 
Q 1159 2488 1159 1978 
L 1159 0 
L 581 0 
L 581 3500 
L 1159 3500 
L 1159 2956 
Q 1356 3278 1631 3431 
Q 1906 3584 2284 3584 
Q 2666 3584 2933 3390 
Q 3200 3197 3328 2828 
z
" transform="scale(0.015625)"/>
      <path id="DejaVuSans-70" d="M 1159 525 
L 1159 -1331 
L 581 -1331 
L 581 3500 
L 1159 3500 
L 1159 2969 
Q 1341 3281 1617 3432 
Q 1894 3584 2278 3584 
Q 2916 3584 3314 3078 
Q 3713 2572 3713 1747 
Q 3713 922 3314 415 
Q 2916 -91 2278 -91 
Q 1894 -91 1617 61 
Q 1341 213 1159 525 
z
M 3116 1747 
Q 3116 2381 2855 2742 
Q 2594 3103 2138 3103 
Q 1681 3103 1420 2742 
Q 1159 2381 1159 1747 
Q 1159 1113 1420 752 
Q 1681 391 2138 391 
Q 2594 391 2855 752 
Q 3116 1113 3116 1747 
z
" transform="scale(0.015625)"/>
      <path id="DejaVuSans-2d" d="M 313 2009 
L 1997 2009 
L 1997 1497 
L 313 1497 
L 313 2009 
z
" transform="scale(0.015625)"/>
      <path id="DejaVuSans-53" d="M 3425 4513 
L 3425 3897 
Q 3066 4069 2747 4153 
Q 2428 4238 2131 4238 
Q 1616 4238 1336 4038 
Q 1056 3838 1056 3469 
Q 1056 3159 1242 3001 
Q 1428 2844 1947 2747 
L 2328 2669 
Q 3034 2534 3370 2195 
Q 3706 1856 3706 1288 
Q 3706 609 3251 259 
Q 2797 -91 1919 -91 
Q 1588 -91 1214 -16 
Q 841 59 441 206 
L 441 856 
Q 825 641 1194 531 
Q 1563 422 1919 422 
Q 2459 422 2753 634 
Q 3047 847 3047 1241 
Q 3047 1584 2836 1778 
Q 2625 1972 2144 2069 
L 1759 2144 
Q 1053 2284 737 2584 
Q 422 2884 422 3419 
Q 422 4038 858 4394 
Q 1294 4750 2059 4750 
Q 2388 4750 2728 4690 
Q 3069 4631 3425 4513 
z
" transform="scale(0.015625)"/>
      <path id="DejaVuSans-68" d="M 3513 2113 
L 3513 0 
L 2938 0 
L 2938 2094 
Q 2938 2591 2744 2837 
Q 2550 3084 2163 3084 
Q 1697 3084 1428 2787 
Q 1159 2491 1159 1978 
L 1159 0 
L 581 0 
L 581 4863 
L 1159 4863 
L 1159 2956 
Q 1366 3272 1645 3428 
Q 1925 3584 2291 3584 
Q 2894 3584 3203 3211 
Q 3513 2838 3513 2113 
z
" transform="scale(0.015625)"/>
     </defs>
     <use xlink:href="#DejaVuSans-50"/>
     <use xlink:href="#DejaVuSans-65" transform="translate(56.677734 0)"/>
     <use xlink:href="#DejaVuSans-72" transform="translate(118.201172 0)"/>
     <use xlink:href="#DejaVuSans-66" transform="translate(159.314453 0)"/>
     <use xlink:href="#DejaVuSans-65" transform="translate(194.519531 0)"/>
     <use xlink:href="#DejaVuSans-63" transform="translate(256.042969 0)"/>
     <use xlink:href="#DejaVuSans-74" transform="translate(311.023438 0)"/>
     <use xlink:href="#DejaVuSans-20" transform="translate(350.232422 0)"/>
     <use xlink:href="#DejaVuSans-43" transform="translate(382.019531 0)"/>
     <use xlink:href="#DejaVuSans-6f" transform="translate(451.84375 0)"/>
     <use xlink:href="#DejaVuSans-6d" transform="translate(513.025391 0)"/>
     <use xlink:href="#DejaVuSans-70" transform="translate(610.4375 0)"/>
     <use xlink:href="#DejaVuSans-65" transform="translate(673.914062 0)"/>
     <use xlink:href="#DejaVuSans-74" transform="translate(735.4375 0)"/>
     <use xlink:href="#DejaVuSans-69" transform="translate(774.646484 0)"/>
     <use xlink:href="#DejaVuSans-74" transform="translate(802.429688 0)"/>
     <use xlink:href="#DejaVuSans-69" transform="translate(841.638672 0)"/>
     <use xlink:href="#DejaVuSans-6f" transform="translate(869.421875 0)"/>
     <use xlink:href="#DejaVuSans-6e" transform="translate(930.603516 0)"/>
     <use xlink:href="#DejaVuSans-20" transform="translate(993.982422 0)"/>
     <use xlink:href="#DejaVuSans-2d" transform="translate(1025.769531 0)"/>
     <use xlink:href="#DejaVuSans-20" transform="translate(1061.853516 0)"/>
     <use xlink:href="#DejaVuSans-53" transform="translate(1093.640625 0)"/>
     <use xlink:href="#DejaVuSans-68" transform="translate(1157.117188 0)"/>
     <use xlink:href="#DejaVuSans-6f" transform="translate(1220.496094 0)"/>
     <use xlink:href="#DejaVuSans-72" transform="translate(1281.677734 0)"/>
     <use xlink:href="#DejaVuSans-74" transform="translate(1322.791016 0)"/>
     <use xlink:href="#DejaVuSans-20" transform="translate(1362 0)"/>
     <use xlink:href="#DejaVuSans-52" transform="translate(1393.787109 0)"/>
     <use xlink:href="#DejaVuSans-75" transform="translate(1458.769531 0)"/>
     <use xlink:href="#DejaVuSans-6e" transform="translate(1522.148438 0)"/>
    </g>
    <!-- Profit Maximization at MC = MR -->
    <g transform="translate(208.692955 54.2496) scale(0.12 -0.12)">
     <defs>
      <path id="DejaVuSans-78" d="M 3513 3500 
L 2247 1797 
L 3578 0 
L 2900 0 
L 1881 1375 
L 863 0 
L 184 0 
L 1544 1831 
L 300 3500 
L 978 3500 
L 1906 2253 
L 2834 3500 
L 3513 3500 
z
" transform="scale(0.015625)"/>
      <path id="DejaVuSans-7a" d="M 353 3500 
L 3084 3500 
L 3084 2975 
L 922 459 
L 3084 459 
L 3084 0 
L 275 0 
L 275 525 
L 2438 3041 
L 353 3041 
L 353 3500 
z
" transform="scale(0.015625)"/>
     </defs>
     <use xlink:href="#DejaVuSans-50"/>
     <use xlink:href="#DejaVuSans-72" transform="translate(58.552734 0)"/>
     <use xlink:href="#DejaVuSans-6f" transform="translate(97.416016 0)"/>
     <use xlink:href="#DejaVuSans-66" transform="translate(158.597656 0)"/>
     <use xlink:href="#DejaVuSans-69" transform="translate(193.802734 0)"/>
     <use xlink:href="#DejaVuSans-74" transform="translate(221.585938 0)"/>
     <use xlink:href="#DejaVuSans-20" transform="translate(260.794922 0)"/>
     <use xlink:href="#DejaVuSans-4d" transform="translate(292.582031 0)"/>
     <use xlink:href="#DejaVuSans-61" transform="translate(378.861328 0)"/>
     <use xlink:href="#DejaVuSans-78" transform="translate(440.140625 0)"/>
     <use xlink:href="#DejaVuSans-69" transform="translate(499.320312 0)"/>
     <use xlink:href="#DejaVuSans-6d" transform="translate(527.103516 0)"/>
     <use xlink:href="#DejaVuSans-69" transform="translate(624.515625 0)"/>
     <use xlink:href="#DejaVuSans-7a" transform="translate(652.298828 0)"/>
     <use xlink:href="#DejaVuSans-61" transform="translate(704.789062 0)"/>
     <use xlink:href="#DejaVuSans-74" transform="translate(766.068359 0)"/>
     <use xlink:href="#DejaVuSans-69" transform="translate(805.277344 0)"/>
     <use xlink:href="#DejaVuSans-6f" transform="translate(833.060547 0)"/>
     <use xlink:href="#DejaVuSans-6e" transform="translate(894.242188 0)"/>
     <use xlink:href="#DejaVuSans-20" transform="translate(957.621094 0)"/>
     <use xlink:href="#DejaVuSans-61" transform="translate(989.408203 0)"/>
     <use xlink:href="#DejaVuSans-74" transform="translate(1050.6875 0)"/>
     <use xlink:href="#DejaVuSans-20" transform="translate(1089.896484 0)"/>
     <use xlink:href="#DejaVuSans-4d" transform="translate(1121.683594 0)"/>
     <use xlink:href="#DejaVuSans-43" transform="translate(1207.962891 0)"/>
     <use xlink:href="#DejaVuSans-20" transform="translate(1277.787109 0)"/>
     <use xlink:href="#DejaVuSans-3d" transform="translate(1309.574219 0)"/>
     <use xlink:href="#DejaVuSans-20" transform="translate(1393.363281 0)"/>
     <use xlink:href="#DejaVuSans-4d" transform="translate(1425.150391 0)"/>
     <use xlink:href="#DejaVuSans-52" transform="translate(1511.429688 0)"/>
    </g>
   </g>
   <g id="PathCollection_1">
    <defs>
     <path id="m0e366f4c7f" d="M 0 5 
C 1.326016 5 2.597899 4.473168 3.535534 3.535534 
C 4.473168 2.597899 5 1.326016 5 0 
C 5 -1.326016 4.473168 -2.597899 3.535534 -3.535534 
C 2.597899 -4.473168 1.326016 -5 0 -5 
C -1.326016 -5 -2.597899 -4.473168 -3.535534 -3.535534 
C -4.473168 -2.597899 -5 -1.326016 -5 0 
C -5 1.326016 -4.473168 2.597899 -3.535534 3.535534 
C -2.597899 4.473168 -1.326016 5 0 5 
z
" style="stroke: #ff0000"/>
    </defs>
    <g clip-path="url(#p693af38e14)">
     <use xlink:href="#m0e366f4c7f" x="174.422087" y="382.4176" style="fill: #ff0000; stroke: #ff0000"/>
    </g>
   </g>
   <g id="legend_1">
    <g id="patch_8">
     <path d="M 258.156392 126.9621 
L 348.934517 126.9621 
Q 350.934517 126.9621 350.934517 124.9621 
L 350.934517 67.2496 
Q 350.934517 65.2496 348.934517 65.2496 
L 258.156392 65.2496 
Q 256.156392 65.2496 256.156392 67.2496 
L 256.156392 124.9621 
Q 256.156392 126.9621 258.156392 126.9621 
z
" style="fill: #ffffff; opacity: 0.8; stroke: #cccccc; stroke-linejoin: miter"/>
    </g>
    <g id="line2d_30">
     <path d="M 260.156392 73.348037 
L 270.156392 73.348037 
L 280.156392 73.348037 
" style="fill: none; stroke: #000000; stroke-width: 2; stroke-linecap: square"/>
    </g>
    <g id="text_17">
     <!-- MC -->
     <g transform="translate(288.156392 76.848037) scale(0.1 -0.1)">
      <use xlink:href="#DejaVuSans-4d"/>
      <use xlink:href="#DejaVuSans-43" transform="translate(86.279297 0)"/>
     </g>
    </g>
    <g id="line2d_31">
     <path d="M 260.156392 88.026162 
L 270.156392 88.026162 
L 280.156392 88.026162 
" style="fill: none; stroke: #0000ff; stroke-width: 2; stroke-linecap: square"/>
    </g>
    <g id="text_18">
     <!-- ATC -->
     <g transform="translate(288.156392 91.526162) scale(0.1 -0.1)">
      <defs>
       <path id="DejaVuSans-41" d="M 2188 4044 
L 1331 1722 
L 3047 1722 
L 2188 4044 
z
M 1831 4666 
L 2547 4666 
L 4325 0 
L 3669 0 
L 3244 1197 
L 1141 1197 
L 716 0 
L 50 0 
L 1831 4666 
z
" transform="scale(0.015625)"/>
       <path id="DejaVuSans-54" d="M -19 4666 
L 3928 4666 
L 3928 4134 
L 2272 4134 
L 2272 0 
L 1638 0 
L 1638 4134 
L -19 4134 
L -19 4666 
z
" transform="scale(0.015625)"/>
      </defs>
      <use xlink:href="#DejaVuSans-41"/>
      <use xlink:href="#DejaVuSans-54" transform="translate(60.658203 0)"/>
      <use xlink:href="#DejaVuSans-43" transform="translate(115.867188 0)"/>
     </g>
    </g>
    <g id="line2d_32">
     <path d="M 260.156392 102.704287 
L 270.156392 102.704287 
L 280.156392 102.704287 
" style="fill: none; stroke: #ffa500; stroke-width: 2; stroke-linecap: square"/>
    </g>
    <g id="text_19">
     <!-- AVC -->
     <g transform="translate(288.156392 106.204287) scale(0.1 -0.1)">
      <defs>
       <path id="DejaVuSans-56" d="M 1831 0 
L 50 4666 
L 709 4666 
L 2188 738 
L 3669 4666 
L 4325 4666 
L 2547 0 
L 1831 0 
z
" transform="scale(0.015625)"/>
      </defs>
      <use xlink:href="#DejaVuSans-41"/>
      <use xlink:href="#DejaVuSans-56" transform="translate(62.033203 0)"/>
      <use xlink:href="#DejaVuSans-43" transform="translate(130.441406 0)"/>
     </g>
    </g>
    <g id="line2d_33">
     <path d="M 260.156392 117.382412 
L 270.156392 117.382412 
L 280.156392 117.382412 
" style="fill: none; stroke-dasharray: 7.4,3.2; stroke-dashoffset: 0; stroke: #008000; stroke-width: 2"/>
    </g>
    <g id="text_20">
     <!-- P = MR = D -->
     <g transform="translate(288.156392 120.882412) scale(0.1 -0.1)">
      <defs>
       <path id="DejaVuSans-44" d="M 1259 4147 
L 1259 519 
L 2022 519 
Q 2988 519 3436 956 
Q 3884 1394 3884 2338 
Q 3884 3275 3436 3711 
Q 2988 4147 2022 4147 
L 1259 4147 
z
M 628 4666 
L 1925 4666 
Q 3281 4666 3915 4102 
Q 4550 3538 4550 2338 
Q 4550 1131 3912 565 
Q 3275 0 1925 0 
L 628 0 
L 628 4666 
z
" transform="scale(0.015625)"/>
      </defs>
      <use xlink:href="#DejaVuSans-50"/>
      <use xlink:href="#DejaVuSans-20" transform="translate(60.302734 0)"/>
      <use xlink:href="#DejaVuSans-3d" transform="translate(92.089844 0)"/>
      <use xlink:href="#DejaVuSans-20" transform="translate(175.878906 0)"/>
      <use xlink:href="#DejaVuSans-4d" transform="translate(207.666016 0)"/>
      <use xlink:href="#DejaVuSans-52" transform="translate(293.945312 0)"/>
      <use xlink:href="#DejaVuSans-20" transform="translate(363.427734 0)"/>
      <use xlink:href="#DejaVuSans-3d" transform="translate(395.214844 0)"/>
      <use xlink:href="#DejaVuSans-20" transform="translate(479.003906 0)"/>
      <use xlink:href="#DejaVuSans-44" transform="translate(510.791016 0)"/>
     </g>
    </g>
   </g>
  </g>
  <g id="axes_2">
   <g id="patch_9">
    <path d="M 552.109091 446.8512 
L 907.2 446.8512 
L 907.2 60.2496 
L 552.109091 60.2496 
z
" style="fill: #ffffff"/>
   </g>
   <g id="matplotlib.axis_3">
    <g id="xtick_6">
     <g id="line2d_34">
      <path d="M 614.005671 446.8512 
L 614.005671 60.2496 
" clip-path="url(#p1acb594edb)" style="fill: none; stroke-dasharray: 2.96,1.28; stroke-dashoffset: 0; stroke: #b0b0b0; stroke-opacity: 0.6; stroke-width: 0.8"/>
     </g>
     <g id="line2d_35">
      <g>
       <use xlink:href="#m5408f77ac2" x="614.005671" y="446.8512" style="stroke: #000000; stroke-width: 0.8"/>
      </g>
     </g>
     <g id="text_21">
      <!-- 20 -->
      <g transform="translate(607.643171 461.449638) scale(0.1 -0.1)">
       <use xlink:href="#DejaVuSans-32"/>
       <use xlink:href="#DejaVuSans-30" transform="translate(63.623047 0)"/>
      </g>
     </g>
    </g>
    <g id="xtick_7">
     <g id="line2d_36">
      <path d="M 679.159967 446.8512 
L 679.159967 60.2496 
" clip-path="url(#p1acb594edb)" style="fill: none; stroke-dasharray: 2.96,1.28; stroke-dashoffset: 0; stroke: #b0b0b0; stroke-opacity: 0.6; stroke-width: 0.8"/>
     </g>
     <g id="line2d_37">
      <g>
       <use xlink:href="#m5408f77ac2" x="679.159967" y="446.8512" style="stroke: #000000; stroke-width: 0.8"/>
      </g>
     </g>
     <g id="text_22">
      <!-- 40 -->
      <g transform="translate(672.797467 461.449638) scale(0.1 -0.1)">
       <use xlink:href="#DejaVuSans-34"/>
       <use xlink:href="#DejaVuSans-30" transform="translate(63.623047 0)"/>
      </g>
     </g>
    </g>
    <g id="xtick_8">
     <g id="line2d_38">
      <path d="M 744.314262 446.8512 
L 744.314262 60.2496 
" clip-path="url(#p1acb594edb)" style="fill: none; stroke-dasharray: 2.96,1.28; stroke-dashoffset: 0; stroke: #b0b0b0; stroke-opacity: 0.6; stroke-width: 0.8"/>
     </g>
     <g id="line2d_39">
      <g>
       <use xlink:href="#m5408f77ac2" x="744.314262" y="446.8512" style="stroke: #000000; stroke-width: 0.8"/>
      </g>
     </g>
     <g id="text_23">
      <!-- 60 -->
      <g transform="translate(737.951762 461.449638) scale(0.1 -0.1)">
       <use xlink:href="#DejaVuSans-36"/>
       <use xlink:href="#DejaVuSans-30" transform="translate(63.623047 0)"/>
      </g>
     </g>
    </g>
    <g id="xtick_9">
     <g id="line2d_40">
      <path d="M 809.468557 446.8512 
L 809.468557 60.2496 
" clip-path="url(#p1acb594edb)" style="fill: none; stroke-dasharray: 2.96,1.28; stroke-dashoffset: 0; stroke: #b0b0b0; stroke-opacity: 0.6; stroke-width: 0.8"/>
     </g>
     <g id="line2d_41">
      <g>
       <use xlink:href="#m5408f77ac2" x="809.468557" y="446.8512" style="stroke: #000000; stroke-width: 0.8"/>
      </g>
     </g>
     <g id="text_24">
      <!-- 80 -->
      <g transform="translate(803.106057 461.449638) scale(0.1 -0.1)">
       <use xlink:href="#DejaVuSans-38"/>
       <use xlink:href="#DejaVuSans-30" transform="translate(63.623047 0)"/>
      </g>
     </g>
    </g>
    <g id="xtick_10">
     <g id="line2d_42">
      <path d="M 874.622852 446.8512 
L 874.622852 60.2496 
" clip-path="url(#p1acb594edb)" style="fill: none; stroke-dasharray: 2.96,1.28; stroke-dashoffset: 0; stroke: #b0b0b0; stroke-opacity: 0.6; stroke-width: 0.8"/>
     </g>
     <g id="line2d_43">
      <g>
       <use xlink:href="#m5408f77ac2" x="874.622852" y="446.8512" style="stroke: #000000; stroke-width: 0.8"/>
      </g>
     </g>
     <g id="text_25">
      <!-- 100 -->
      <g transform="translate(865.079102 461.449638) scale(0.1 -0.1)">
       <use xlink:href="#DejaVuSans-31"/>
       <use xlink:href="#DejaVuSans-30" transform="translate(63.623047 0)"/>
       <use xlink:href="#DejaVuSans-30" transform="translate(127.246094 0)"/>
      </g>
     </g>
    </g>
    <g id="text_26">
     <!-- Quantity (Q) -->
     <g transform="translate(698.621733 475.127763) scale(0.1 -0.1)">
      <use xlink:href="#DejaVuSans-51"/>
      <use xlink:href="#DejaVuSans-75" transform="translate(78.710938 0)"/>
      <use xlink:href="#DejaVuSans-61" transform="translate(142.089844 0)"/>
      <use xlink:href="#DejaVuSans-6e" transform="translate(203.369141 0)"/>
      <use xlink:href="#DejaVuSans-74" transform="translate(266.748047 0)"/>
      <use xlink:href="#DejaVuSans-69" transform="translate(305.957031 0)"/>
      <use xlink:href="#DejaVuSans-74" transform="translate(333.740234 0)"/>
      <use xlink:href="#DejaVuSans-79" transform="translate(372.949219 0)"/>
      <use xlink:href="#DejaVuSans-20" transform="translate(432.128906 0)"/>
      <use xlink:href="#DejaVuSans-28" transform="translate(463.916016 0)"/>
      <use xlink:href="#DejaVuSans-51" transform="translate(502.929688 0)"/>
      <use xlink:href="#DejaVuSans-29" transform="translate(581.640625 0)"/>
     </g>
    </g>
   </g>
   <g id="matplotlib.axis_4">
    <g id="ytick_8">
     <g id="line2d_44">
      <path d="M 552.109091 446.8512 
L 907.2 446.8512 
" clip-path="url(#p1acb594edb)" style="fill: none; stroke-dasharray: 2.96,1.28; stroke-dashoffset: 0; stroke: #b0b0b0; stroke-opacity: 0.6; stroke-width: 0.8"/>
     </g>
     <g id="line2d_45">
      <g>
       <use xlink:href="#m6f2e966441" x="552.109091" y="446.8512" style="stroke: #000000; stroke-width: 0.8"/>
      </g>
     </g>
     <g id="text_27">
      <!-- 0 -->
      <g transform="translate(538.746591 450.650419) scale(0.1 -0.1)">
       <use xlink:href="#DejaVuSans-30"/>
      </g>
     </g>
    </g>
    <g id="ytick_9">
     <g id="line2d_46">
      <path d="M 552.109091 382.4176 
L 907.2 382.4176 
" clip-path="url(#p1acb594edb)" style="fill: none; stroke-dasharray: 2.96,1.28; stroke-dashoffset: 0; stroke: #b0b0b0; stroke-opacity: 0.6; stroke-width: 0.8"/>
     </g>
     <g id="line2d_47">
      <g>
       <use xlink:href="#m6f2e966441" x="552.109091" y="382.4176" style="stroke: #000000; stroke-width: 0.8"/>
      </g>
     </g>
     <g id="text_28">
      <!-- 20 -->
      <g transform="translate(532.384091 386.216819) scale(0.1 -0.1)">
       <use xlink:href="#DejaVuSans-32"/>
       <use xlink:href="#DejaVuSans-30" transform="translate(63.623047 0)"/>
      </g>
     </g>
    </g>
    <g id="ytick_10">
     <g id="line2d_48">
      <path d="M 552.109091 317.984 
L 907.2 317.984 
" clip-path="url(#p1acb594edb)" style="fill: none; stroke-dasharray: 2.96,1.28; stroke-dashoffset: 0; stroke: #b0b0b0; stroke-opacity: 0.6; stroke-width: 0.8"/>
     </g>
     <g id="line2d_49">
      <g>
       <use xlink:href="#m6f2e966441" x="552.109091" y="317.984" style="stroke: #000000; stroke-width: 0.8"/>
      </g>
     </g>
     <g id="text_29">
      <!-- 40 -->
      <g transform="translate(532.384091 321.783219) scale(0.1 -0.1)">
       <use xlink:href="#DejaVuSans-34"/>
       <use xlink:href="#DejaVuSans-30" transform="translate(63.623047 0)"/>
      </g>
     </g>
    </g>
    <g id="ytick_11">
     <g id="line2d_50">
      <path d="M 552.109091 253.5504 
L 907.2 253.5504 
" clip-path="url(#p1acb594edb)" style="fill: none; stroke-dasharray: 2.96,1.28; stroke-dashoffset: 0; stroke: #b0b0b0; stroke-opacity: 0.6; stroke-width: 0.8"/>
     </g>
     <g id="line2d_51">
      <g>
       <use xlink:href="#m6f2e966441" x="552.109091" y="253.5504" style="stroke: #000000; stroke-width: 0.8"/>
      </g>
     </g>
     <g id="text_30">
      <!-- 60 -->
      <g transform="translate(532.384091 257.349619) scale(0.1 -0.1)">
       <use xlink:href="#DejaVuSans-36"/>
       <use xlink:href="#DejaVuSans-30" transform="translate(63.623047 0)"/>
      </g>
     </g>
    </g>
    <g id="ytick_12">
     <g id="line2d_52">
      <path d="M 552.109091 189.1168 
L 907.2 189.1168 
" clip-path="url(#p1acb594edb)" style="fill: none; stroke-dasharray: 2.96,1.28; stroke-dashoffset: 0; stroke: #b0b0b0; stroke-opacity: 0.6; stroke-width: 0.8"/>
     </g>
     <g id="line2d_53">
      <g>
       <use xlink:href="#m6f2e966441" x="552.109091" y="189.1168" style="stroke: #000000; stroke-width: 0.8"/>
      </g>
     </g>
     <g id="text_31">
      <!-- 80 -->
      <g transform="translate(532.384091 192.916019) scale(0.1 -0.1)">
       <use xlink:href="#DejaVuSans-38"/>
       <use xlink:href="#DejaVuSans-30" transform="translate(63.623047 0)"/>
      </g>
     </g>
    </g>
    <g id="ytick_13">
     <g id="line2d_54">
      <path d="M 552.109091 124.6832 
L 907.2 124.6832 
" clip-path="url(#p1acb594edb)" style="fill: none; stroke-dasharray: 2.96,1.28; stroke-dashoffset: 0; stroke: #b0b0b0; stroke-opacity: 0.6; stroke-width: 0.8"/>
     </g>
     <g id="line2d_55">
      <g>
       <use xlink:href="#m6f2e966441" x="552.109091" y="124.6832" style="stroke: #000000; stroke-width: 0.8"/>
      </g>
     </g>
     <g id="text_32">
      <!-- 100 -->
      <g transform="translate(526.021591 128.482419) scale(0.1 -0.1)">
       <use xlink:href="#DejaVuSans-31"/>
       <use xlink:href="#DejaVuSans-30" transform="translate(63.623047 0)"/>
       <use xlink:href="#DejaVuSans-30" transform="translate(127.246094 0)"/>
      </g>
     </g>
    </g>
    <g id="ytick_14">
     <g id="line2d_56">
      <path d="M 552.109091 60.2496 
L 907.2 60.2496 
" clip-path="url(#p1acb594edb)" style="fill: none; stroke-dasharray: 2.96,1.28; stroke-dashoffset: 0; stroke: #b0b0b0; stroke-opacity: 0.6; stroke-width: 0.8"/>
     </g>
     <g id="line2d_57">
      <g>
       <use xlink:href="#m6f2e966441" x="552.109091" y="60.2496" style="stroke: #000000; stroke-width: 0.8"/>
      </g>
     </g>
     <g id="text_33">
      <!-- 120 -->
      <g transform="translate(526.021591 64.048819) scale(0.1 -0.1)">
       <use xlink:href="#DejaVuSans-31"/>
       <use xlink:href="#DejaVuSans-32" transform="translate(63.623047 0)"/>
       <use xlink:href="#DejaVuSans-30" transform="translate(127.246094 0)"/>
      </g>
     </g>
    </g>
    <g id="text_34">
     <!-- Cost / Price -->
     <g transform="translate(519.941903 281.726181) rotate(-90) scale(0.1 -0.1)">
      <use xlink:href="#DejaVuSans-43"/>
      <use xlink:href="#DejaVuSans-6f" transform="translate(69.824219 0)"/>
      <use xlink:href="#DejaVuSans-73" transform="translate(131.005859 0)"/>
      <use xlink:href="#DejaVuSans-74" transform="translate(183.105469 0)"/>
      <use xlink:href="#DejaVuSans-20" transform="translate(222.314453 0)"/>
      <use xlink:href="#DejaVuSans-2f" transform="translate(254.101562 0)"/>
      <use xlink:href="#DejaVuSans-20" transform="translate(287.792969 0)"/>
      <use xlink:href="#DejaVuSans-50" transform="translate(319.580078 0)"/>
      <use xlink:href="#DejaVuSans-72" transform="translate(378.132812 0)"/>
      <use xlink:href="#DejaVuSans-69" transform="translate(419.246094 0)"/>
      <use xlink:href="#DejaVuSans-63" transform="translate(447.029297 0)"/>
      <use xlink:href="#DejaVuSans-65" transform="translate(502.009766 0)"/>
     </g>
    </g>
   </g>
   <g id="line2d_58">
    <path d="M 552.109091 137.376619 
L 557.090326 156.038086 
L 562.071561 173.795671 
L 567.052797 190.649374 
L 571.322427 204.375989 
L 575.592057 217.438527 
L 579.861687 229.83699 
L 584.131317 241.571376 
L 588.400947 252.641685 
L 592.670578 263.047918 
L 596.940208 272.790075 
L 600.498233 280.401258 
L 604.056258 287.551277 
L 607.614283 294.240132 
L 611.172308 300.467823 
L 614.730333 306.234349 
L 618.288359 311.539712 
L 621.846384 316.38391 
L 624.692804 319.92723 
L 627.539224 323.175405 
L 630.385644 326.128436 
L 633.232064 328.786321 
L 636.078484 331.149061 
L 638.924904 333.216656 
L 641.771324 334.989106 
L 644.617745 336.466411 
L 647.464165 337.648571 
L 650.310585 338.535585 
L 653.157005 339.127455 
L 656.003425 339.42418 
L 658.849845 339.425759 
L 661.696265 339.132194 
L 664.542685 338.543483 
L 667.389105 337.659627 
L 670.235526 336.480626 
L 673.081946 335.006481 
L 675.928366 333.23719 
L 678.774786 331.172754 
L 681.621206 328.813173 
L 684.467626 326.158447 
L 687.314046 323.208575 
L 690.160466 319.963559 
L 693.006887 316.423398 
L 695.853307 312.588091 
L 699.411332 307.378911 
L 702.969357 301.708566 
L 706.527382 295.577057 
L 710.085407 288.984383 
L 713.643432 281.930546 
L 717.201457 274.415544 
L 720.759483 266.439379 
L 725.029113 256.259243 
L 729.298743 245.415031 
L 733.568373 233.906742 
L 737.838003 221.734377 
L 742.107633 208.897936 
L 746.377264 195.397418 
L 750.646894 181.232824 
L 755.628129 163.868146 
L 760.609364 145.599585 
L 765.590599 126.427143 
L 770.571835 106.350819 
L 775.55307 85.370614 
L 780.534305 63.486526 
L 785.51554 40.698557 
L 791.20838 13.548369 
L 794.161135 -1 
L 794.161135 -1 
" clip-path="url(#p1acb594edb)" style="fill: none; stroke: #000000; stroke-width: 2; stroke-linecap: square"/>
   </g>
   <g id="line2d_59">
    <path d="M 552.109091 131.062126 
L 558.513536 143.22696 
L 564.917981 154.893737 
L 571.322427 166.062456 
L 577.015267 175.572085 
L 582.708107 184.688186 
L 588.400947 193.410761 
L 594.093788 201.739809 
L 599.786628 209.67533 
L 605.479468 217.217325 
L 611.172308 224.365793 
L 616.865148 231.120734 
L 621.846384 236.708492 
L 626.827619 241.994957 
L 631.808854 246.980127 
L 636.790089 251.664004 
L 641.771324 256.046587 
L 646.75256 260.127876 
L 651.733795 263.90787 
L 656.71503 267.386571 
L 661.696265 270.563978 
L 666.6775 273.440092 
L 670.947131 275.665526 
L 675.216761 277.669602 
L 679.486391 279.452319 
L 683.756021 281.013677 
L 688.025651 282.353676 
L 692.295281 283.472316 
L 696.564912 284.369598 
L 700.834542 285.045521 
L 705.104172 285.500085 
L 709.373802 285.73329 
L 713.643432 285.745136 
L 717.913062 285.535624 
L 722.182693 285.104753 
L 726.452323 284.452523 
L 730.721953 283.578934 
L 734.991583 282.483986 
L 739.261213 281.16768 
L 743.530844 279.630015 
L 747.800474 277.870991 
L 752.070104 275.890608 
L 756.339734 273.688866 
L 760.609364 271.265766 
L 765.590599 268.159043 
L 770.571835 264.751025 
L 775.55307 261.041714 
L 780.534305 257.031109 
L 785.51554 252.71921 
L 790.496775 248.106017 
L 795.478011 243.19153 
L 800.459246 237.975749 
L 805.440481 232.458674 
L 810.421716 226.640305 
L 816.114556 219.62181 
L 821.807397 212.209787 
L 827.500237 204.404238 
L 833.193077 196.205162 
L 838.885917 187.612559 
L 844.578758 178.62643 
L 850.271598 169.246774 
L 855.964438 159.473591 
L 862.368883 148.008373 
L 868.773328 136.045097 
L 875.177774 123.583764 
L 881.582219 110.624374 
L 887.986664 97.166926 
L 894.391109 83.211422 
L 900.795555 68.757859 
L 907.2 53.80624 
L 907.2 53.80624 
" clip-path="url(#p1acb594edb)" style="fill: none; stroke: #0000ff; stroke-width: 2; stroke-linecap: square"/>
   </g>
   <g id="line2d_60">
    <path d="M 552.109091 285.7672 
L 907.2 285.7672 
L 907.2 285.7672 
" clip-path="url(#p1acb594edb)" style="fill: none; stroke-dasharray: 7.4,3.2; stroke-dashoffset: 0; stroke: #008000; stroke-width: 2"/>
   </g>
   <g id="patch_10">
    <path d="M 552.109091 446.8512 
L 552.109091 60.2496 
" style="fill: none; stroke: #000000; stroke-width: 0.8; stroke-linejoin: miter; stroke-linecap: square"/>
   </g>
   <g id="patch_11">
    <path d="M 907.2 446.8512 
L 907.2 60.2496 
" style="fill: none; stroke: #000000; stroke-width: 0.8; stroke-linejoin: miter; stroke-linecap: square"/>
   </g>
   <g id="patch_12">
    <path d="M 552.109091 446.8512 
L 907.2 446.8512 
" style="fill: none; stroke: #000000; stroke-width: 0.8; stroke-linejoin: miter; stroke-linecap: square"/>
   </g>
   <g id="patch_13">
    <path d="M 552.109091 60.2496 
L 907.2 60.2496 
" style="fill: none; stroke: #000000; stroke-width: 0.8; stroke-linejoin: miter; stroke-linecap: square"/>
   </g>
   <g id="text_35">
    <!-- Long-Run Equilibrium -->
    <g style="fill: #ff0000" transform="translate(714.766332 305.253098) scale(0.1 -0.1)">
     <defs>
      <path id="DejaVuSans-4c" d="M 628 4666 
L 1259 4666 
L 1259 531 
L 3531 531 
L 3531 0 
L 628 0 
L 628 4666 
z
" transform="scale(0.015625)"/>
      <path id="DejaVuSans-67" d="M 2906 1791 
Q 2906 2416 2648 2759 
Q 2391 3103 1925 3103 
Q 1463 3103 1205 2759 
Q 947 2416 947 1791 
Q 947 1169 1205 825 
Q 1463 481 1925 481 
Q 2391 481 2648 825 
Q 2906 1169 2906 1791 
z
M 3481 434 
Q 3481 -459 3084 -895 
Q 2688 -1331 1869 -1331 
Q 1566 -1331 1297 -1286 
Q 1028 -1241 775 -1147 
L 775 -588 
Q 1028 -725 1275 -790 
Q 1522 -856 1778 -856 
Q 2344 -856 2625 -561 
Q 2906 -266 2906 331 
L 2906 616 
Q 2728 306 2450 153 
Q 2172 0 1784 0 
Q 1141 0 747 490 
Q 353 981 353 1791 
Q 353 2603 747 3093 
Q 1141 3584 1784 3584 
Q 2172 3584 2450 3431 
Q 2728 3278 2906 2969 
L 2906 3500 
L 3481 3500 
L 3481 434 
z
" transform="scale(0.015625)"/>
      <path id="DejaVuSans-45" d="M 628 4666 
L 3578 4666 
L 3578 4134 
L 1259 4134 
L 1259 2753 
L 3481 2753 
L 3481 2222 
L 1259 2222 
L 1259 531 
L 3634 531 
L 3634 0 
L 628 0 
L 628 4666 
z
" transform="scale(0.015625)"/>
      <path id="DejaVuSans-71" d="M 947 1747 
Q 947 1113 1208 752 
Q 1469 391 1925 391 
Q 2381 391 2643 752 
Q 2906 1113 2906 1747 
Q 2906 2381 2643 2742 
Q 2381 3103 1925 3103 
Q 1469 3103 1208 2742 
Q 947 2381 947 1747 
z
M 2906 525 
Q 2725 213 2448 61 
Q 2172 -91 1784 -91 
Q 1150 -91 751 415 
Q 353 922 353 1747 
Q 353 2572 751 3078 
Q 1150 3584 1784 3584 
Q 2172 3584 2448 3432 
Q 2725 3281 2906 2969 
L 2906 3500 
L 3481 3500 
L 3481 -1331 
L 2906 -1331 
L 2906 525 
z
" transform="scale(0.015625)"/>
      <path id="DejaVuSans-6c" d="M 603 4863 
L 1178 4863 
L 1178 0 
L 603 0 
L 603 4863 
z
" transform="scale(0.015625)"/>
      <path id="DejaVuSans-62" d="M 3116 1747 
Q 3116 2381 2855 2742 
Q 2594 3103 2138 3103 
Q 1681 3103 1420 2742 
Q 1159 2381 1159 1747 
Q 1159 1113 1420 752 
Q 1681 391 2138 391 
Q 2594 391 2855 752 
Q 3116 1113 3116 1747 
z
M 1159 2969 
Q 1341 3281 1617 3432 
Q 1894 3584 2278 3584 
Q 2916 3584 3314 3078 
Q 3713 2572 3713 1747 
Q 3713 922 3314 415 
Q 2916 -91 2278 -91 
Q 1894 -91 1617 61 
Q 1341 213 1159 525 
L 1159 0 
L 581 0 
L 581 4863 
L 1159 4863 
L 1159 2969 
z
" transform="scale(0.015625)"/>
     </defs>
     <use xlink:href="#DejaVuSans-4c"/>
     <use xlink:href="#DejaVuSans-6f" transform="translate(53.962891 0)"/>
     <use xlink:href="#DejaVuSans-6e" transform="translate(115.144531 0)"/>
     <use xlink:href="#DejaVuSans-67" transform="translate(178.523438 0)"/>
     <use xlink:href="#DejaVuSans-2d" transform="translate(242 0)"/>
     <use xlink:href="#DejaVuSans-52" transform="translate(278.083984 0)"/>
     <use xlink:href="#DejaVuSans-75" transform="translate(343.066406 0)"/>
     <use xlink:href="#DejaVuSans-6e" transform="translate(406.445312 0)"/>
     <use xlink:href="#DejaVuSans-20" transform="translate(469.824219 0)"/>
     <use xlink:href="#DejaVuSans-45" transform="translate(501.611328 0)"/>
     <use xlink:href="#DejaVuSans-71" transform="translate(564.794922 0)"/>
     <use xlink:href="#DejaVuSans-75" transform="translate(628.271484 0)"/>
     <use xlink:href="#DejaVuSans-69" transform="translate(691.650391 0)"/>
     <use xlink:href="#DejaVuSans-6c" transform="translate(719.433594 0)"/>
     <use xlink:href="#DejaVuSans-69" transform="translate(747.216797 0)"/>
     <use xlink:href="#DejaVuSans-62" transform="translate(775 0)"/>
     <use xlink:href="#DejaVuSans-72" transform="translate(838.476562 0)"/>
     <use xlink:href="#DejaVuSans-69" transform="translate(879.589844 0)"/>
     <use xlink:href="#DejaVuSans-75" transform="translate(907.373047 0)"/>
     <use xlink:href="#DejaVuSans-6d" transform="translate(970.751953 0)"/>
    </g>
    <!-- P = MC = min(ATC) -->
    <g style="fill: #ff0000" transform="translate(714.766332 316.450911) scale(0.1 -0.1)">
     <use xlink:href="#DejaVuSans-50"/>
     <use xlink:href="#DejaVuSans-20" transform="translate(60.302734 0)"/>
     <use xlink:href="#DejaVuSans-3d" transform="translate(92.089844 0)"/>
     <use xlink:href="#DejaVuSans-20" transform="translate(175.878906 0)"/>
     <use xlink:href="#DejaVuSans-4d" transform="translate(207.666016 0)"/>
     <use xlink:href="#DejaVuSans-43" transform="translate(293.945312 0)"/>
     <use xlink:href="#DejaVuSans-20" transform="translate(363.769531 0)"/>
     <use xlink:href="#DejaVuSans-3d" transform="translate(395.556641 0)"/>
     <use xlink:href="#DejaVuSans-20" transform="translate(479.345703 0)"/>
     <use xlink:href="#DejaVuSans-6d" transform="translate(511.132812 0)"/>
     <use xlink:href="#DejaVuSans-69" transform="translate(608.544922 0)"/>
     <use xlink:href="#DejaVuSans-6e" transform="translate(636.328125 0)"/>
     <use xlink:href="#DejaVuSans-28" transform="translate(699.707031 0)"/>
     <use xlink:href="#DejaVuSans-41" transform="translate(738.720703 0)"/>
     <use xlink:href="#DejaVuSans-54" transform="translate(799.378906 0)"/>
     <use xlink:href="#DejaVuSans-43" transform="translate(854.587891 0)"/>
     <use xlink:href="#DejaVuSans-29" transform="translate(924.412109 0)"/>
    </g>
    <!-- Zero Economic Profit -->
    <g style="fill: #ff0000" transform="translate(714.766332 327.648723) scale(0.1 -0.1)">
     <defs>
      <path id="DejaVuSans-5a" d="M 359 4666 
L 4025 4666 
L 4025 4184 
L 1075 531 
L 4097 531 
L 4097 0 
L 288 0 
L 288 481 
L 3238 4134 
L 359 4134 
L 359 4666 
z
" transform="scale(0.015625)"/>
     </defs>
     <use xlink:href="#DejaVuSans-5a"/>
     <use xlink:href="#DejaVuSans-65" transform="translate(68.505859 0)"/>
     <use xlink:href="#DejaVuSans-72" transform="translate(130.029297 0)"/>
     <use xlink:href="#DejaVuSans-6f" transform="translate(168.892578 0)"/>
     <use xlink:href="#DejaVuSans-20" transform="translate(230.074219 0)"/>
     <use xlink:href="#DejaVuSans-45" transform="translate(261.861328 0)"/>
     <use xlink:href="#DejaVuSans-63" transform="translate(325.044922 0)"/>
     <use xlink:href="#DejaVuSans-6f" transform="translate(380.025391 0)"/>
     <use xlink:href="#DejaVuSans-6e" transform="translate(441.207031 0)"/>
     <use xlink:href="#DejaVuSans-6f" transform="translate(504.585938 0)"/>
     <use xlink:href="#DejaVuSans-6d" transform="translate(565.767578 0)"/>
     <use xlink:href="#DejaVuSans-69" transform="translate(663.179688 0)"/>
     <use xlink:href="#DejaVuSans-63" transform="translate(690.962891 0)"/>
     <use xlink:href="#DejaVuSans-20" transform="translate(745.943359 0)"/>
     <use xlink:href="#DejaVuSans-50" transform="translate(777.730469 0)"/>
     <use xlink:href="#DejaVuSans-72" transform="translate(836.283203 0)"/>
     <use xlink:href="#DejaVuSans-6f" transform="translate(875.146484 0)"/>
     <use xlink:href="#DejaVuSans-66" transform="translate(936.328125 0)"/>
     <use xlink:href="#DejaVuSans-69" transform="translate(971.533203 0)"/>
     <use xlink:href="#DejaVuSans-74" transform="translate(999.316406 0)"/>
    </g>
   </g>
   <g id="text_36">
    <!-- Perfect Competition - Long Run -->
    <g transform="translate(636.10517 40.812225) scale(0.12 -0.12)">
     <use xlink:href="#DejaVuSans-50"/>
     <use xlink:href="#DejaVuSans-65" transform="translate(56.677734 0)"/>
     <use xlink:href="#DejaVuSans-72" transform="translate(118.201172 0)"/>
     <use xlink:href="#DejaVuSans-66" transform="translate(159.314453 0)"/>
     <use xlink:href="#DejaVuSans-65" transform="translate(194.519531 0)"/>
     <use xlink:href="#DejaVuSans-63" transform="translate(256.042969 0)"/>
     <use xlink:href="#DejaVuSans-74" transform="translate(311.023438 0)"/>
     <use xlink:href="#DejaVuSans-20" transform="translate(350.232422 0)"/>
     <use xlink:href="#DejaVuSans-43" transform="translate(382.019531 0)"/>
     <use xlink:href="#DejaVuSans-6f" transform="translate(451.84375 0)"/>
     <use xlink:href="#DejaVuSans-6d" transform="translate(513.025391 0)"/>
     <use xlink:href="#DejaVuSans-70" transform="translate(610.4375 0)"/>
     <use xlink:href="#DejaVuSans-65" transform="translate(673.914062 0)"/>
     <use xlink:href="#DejaVuSans-74" transform="translate(735.4375 0)"/>
     <use xlink:href="#DejaVuSans-69" transform="translate(774.646484 0)"/>
     <use xlink:href="#DejaVuSans-74" transform="translate(802.429688 0)"/>
     <use xlink:href="#DejaVuSans-69" transform="translate(841.638672 0)"/>
     <use xlink:href="#DejaVuSans-6f" transform="translate(869.421875 0)"/>
     <use xlink:href="#DejaVuSans-6e" transform="translate(930.603516 0)"/>
     <use xlink:href="#DejaVuSans-20" transform="translate(993.982422 0)"/>
     <use xlink:href="#DejaVuSans-2d" transform="translate(1025.769531 0)"/>
     <use xlink:href="#DejaVuSans-20" transform="translate(1061.853516 0)"/>
     <use xlink:href="#DejaVuSans-4c" transform="translate(1093.640625 0)"/>
     <use xlink:href="#DejaVuSans-6f" transform="translate(1147.603516 0)"/>
     <use xlink:href="#DejaVuSans-6e" transform="translate(1208.785156 0)"/>
     <use xlink:href="#DejaVuSans-67" transform="translate(1272.164062 0)"/>
     <use xlink:href="#DejaVuSans-20" transform="translate(1335.640625 0)"/>
     <use xlink:href="#DejaVuSans-52" transform="translate(1367.427734 0)"/>
     <use xlink:href="#DejaVuSans-75" transform="translate(1432.410156 0)"/>
     <use xlink:href="#DejaVuSans-6e" transform="translate(1495.789062 0)"/>
    </g>
    <!-- Zero Economic Profit -->
    <g transform="translate(667.343608 54.2496) scale(0.12 -0.12)">
     <use xlink:href="#DejaVuSans-5a"/>
     <use xlink:href="#DejaVuSans-65" transform="translate(68.505859 0)"/>
     <use xlink:href="#DejaVuSans-72" transform="translate(130.029297 0)"/>
     <use xlink:href="#DejaVuSans-6f" transform="translate(168.892578 0)"/>
     <use xlink:href="#DejaVuSans-20" transform="translate(230.074219 0)"/>
     <use xlink:href="#DejaVuSans-45" transform="translate(261.861328 0)"/>
     <use xlink:href="#DejaVuSans-63" transform="translate(325.044922 0)"/>
     <use xlink:href="#DejaVuSans-6f" transform="translate(380.025391 0)"/>
     <use xlink:href="#DejaVuSans-6e" transform="translate(441.207031 0)"/>
     <use xlink:href="#DejaVuSans-6f" transform="translate(504.585938 0)"/>
     <use xlink:href="#DejaVuSans-6d" transform="translate(565.767578 0)"/>
     <use xlink:href="#DejaVuSans-69" transform="translate(663.179688 0)"/>
     <use xlink:href="#DejaVuSans-63" transform="translate(690.962891 0)"/>
     <use xlink:href="#DejaVuSans-20" transform="translate(745.943359 0)"/>
     <use xlink:href="#DejaVuSans-50" transform="translate(777.730469 0)"/>
     <use xlink:href="#DejaVuSans-72" transform="translate(836.283203 0)"/>
     <use xlink:href="#DejaVuSans-6f" transform="translate(875.146484 0)"/>
     <use xlink:href="#DejaVuSans-66" transform="translate(936.328125 0)"/>
     <use xlink:href="#DejaVuSans-69" transform="translate(971.533203 0)"/>
     <use xlink:href="#DejaVuSans-74" transform="translate(999.316406 0)"/>
    </g>
   </g>
   <g id="PathCollection_2">
    <g clip-path="url(#p1acb594edb)">
     <use xlink:href="#m0e366f4c7f" x="711.508617" y="285.766883" style="fill: #ff0000; stroke: #ff0000"/>
    </g>
   </g>
   <g id="legend_2">
    <g id="patch_14">
     <path d="M 559.109091 112.283975 
L 709.851278 112.283975 
Q 711.851278 112.283975 711.851278 110.283975 
L 711.851278 67.2496 
Q 711.851278 65.2496 709.851278 65.2496 
L 559.109091 65.2496 
Q 557.109091 65.2496 557.109091 67.2496 
L 557.109091 110.283975 
Q 557.109091 112.283975 559.109091 112.283975 
z
" style="fill: #ffffff; opacity: 0.8; stroke: #cccccc; stroke-linejoin: miter"/>
    </g>
    <g id="line2d_61">
     <path d="M 561.109091 73.348037 
L 571.109091 73.348037 
L 581.109091 73.348037 
" style="fill: none; stroke: #000000; stroke-width: 2; stroke-linecap: square"/>
    </g>
    <g id="text_37">
     <!-- MC -->
     <g transform="translate(589.109091 76.848037) scale(0.1 -0.1)">
      <use xlink:href="#DejaVuSans-4d"/>
      <use xlink:href="#DejaVuSans-43" transform="translate(86.279297 0)"/>
     </g>
    </g>
    <g id="line2d_62">
     <path d="M 561.109091 88.026162 
L 571.109091 88.026162 
L 581.109091 88.026162 
" style="fill: none; stroke: #0000ff; stroke-width: 2; stroke-linecap: square"/>
    </g>
    <g id="text_38">
     <!-- ATC -->
     <g transform="translate(589.109091 91.526162) scale(0.1 -0.1)">
      <use xlink:href="#DejaVuSans-41"/>
      <use xlink:href="#DejaVuSans-54" transform="translate(60.658203 0)"/>
      <use xlink:href="#DejaVuSans-43" transform="translate(115.867188 0)"/>
     </g>
    </g>
    <g id="line2d_63">
     <path d="M 561.109091 102.704287 
L 571.109091 102.704287 
L 581.109091 102.704287 
" style="fill: none; stroke-dasharray: 7.4,3.2; stroke-dashoffset: 0; stroke: #008000; stroke-width: 2"/>
    </g>
    <g id="text_39">
     <!-- P = MR = D = min(ATC) -->
     <g transform="translate(589.109091 106.204287) scale(0.1 -0.1)">
      <use xlink:href="#DejaVuSans-50"/>
      <use xlink:href="#DejaVuSans-20" transform="translate(60.302734 0)"/>
      <use xlink:href="#DejaVuSans-3d" transform="translate(92.089844 0)"/>
      <use xlink:href="#DejaVuSans-20" transform="translate(175.878906 0)"/>
      <use xlink:href="#DejaVuSans-4d" transform="translate(207.666016 0)"/>
      <use xlink:href="#DejaVuSans-52" transform="translate(293.945312 0)"/>
      <use xlink:href="#DejaVuSans-20" transform="translate(363.427734 0)"/>
      <use xlink:href="#DejaVuSans-3d" transform="translate(395.214844 0)"/>
      <use xlink:href="#DejaVuSans-20" transform="translate(479.003906 0)"/>
      <use xlink:href="#DejaVuSans-44" transform="translate(510.791016 0)"/>
      <use xlink:href="#DejaVuSans-20" transform="translate(587.792969 0)"/>
      <use xlink:href="#DejaVuSans-3d" transform="translate(619.580078 0)"/>
      <use xlink:href="#DejaVuSans-20" transform="translate(703.369141 0)"/>
      <use xlink:href="#DejaVuSans-6d" transform="translate(735.15625 0)"/>
      <use xlink:href="#DejaVuSans-69" transform="translate(832.568359 0)"/>
      <use xlink:href="#DejaVuSans-6e" transform="translate(860.351562 0)"/>
      <use xlink:href="#DejaVuSans-28" transform="translate(923.730469 0)"/>
      <use xlink:href="#DejaVuSans-41" transform="translate(962.744141 0)"/>
      <use xlink:href="#DejaVuSans-54" transform="translate(1023.402344 0)"/>
      <use xlink:href="#DejaVuSans-43" transform="translate(1078.611328 0)"/>
      <use xlink:href="#DejaVuSans-29" transform="translate(1148.435547 0)"/>
     </g>
    </g>
   </g>
  </g>
 </g>
 <defs>
  <clipPath id="p693af38e14">
   <rect x="126" y="60.2496" width="355.090909" height="386.6016"/>
  </clipPath>
  <clipPath id="p1acb594edb">
   <rect x="552.109091" y="60.2496" width="355.090909" height="386.6016"/>
  </clipPath>
 </defs>
</svg>
